<?xml version="1.0" encoding="UTF-8" standalone="no"?>
<!DOCTYPE svg PUBLIC "-//W3C//DTD SVG 1.1//EN" "http://www.w3.org/Graphics/SVG/1.1/DTD/svg11.dtd">
<svg width="100%" height="100%" viewBox="0 0 1920 690" version="1.1" xmlns="http://www.w3.org/2000/svg" xmlns:xlink="http://www.w3.org/1999/xlink" xml:space="preserve" xmlns:serif="http://www.serif.com/" style="fill-rule:evenodd;clip-rule:evenodd;stroke-linejoin:round;stroke-miterlimit:2;">
    <g>
        <g transform="matrix(1.97125,0,0,1.97125,-931.941,-719.269)">
            <path d="M1289.31,503.59C1290.68,500.661 1295.01,499.234 1297.93,500.611C1302.06,502.552 1302.59,503.965 1300.43,509.68C1295.57,522.511 1293.73,525.103 1292.61,528.94C1291.5,532.776 1288.67,534.312 1284.99,534.312C1281.32,534.312 1279.02,530.706 1280.09,527.659C1282.76,520.131 1287.1,508.287 1289.31,503.59Z" style="fill:rgb(244,63,94);"/>
        </g>
        <g transform="matrix(1.97125,0,0,1.97125,-931.941,-719.269)">
            <path d="M1316.15,513.207C1318.68,511.51 1322.62,510.529 1324.99,512.73C1327.36,514.931 1327.49,518.64 1325.29,521.007C1325.29,521.007 1316.44,530.87 1313.28,533.778C1311.08,535.797 1305.71,537.032 1303.34,534.831C1300.98,532.63 1301.51,529.379 1303.71,527.012C1303.71,527.012 1306.77,523.7 1310.02,519.967C1312.31,517.341 1313.26,515.147 1316.15,513.207Z" style="fill:rgb(244,63,94);"/>
        </g>
    </g>
    <path d="M651.426,227.748C648.417,229.042 644.867,229 641.763,227.326C636.371,224.418 633.136,219.576 636.044,214.184C650.355,187.651 659.019,158.124 650.601,135.42C637.014,98.773 596.955,63.679 561.811,43.692C538.983,30.709 515.573,27.713 497.859,27.713C469.516,27.713 441.817,43.191 416.882,64.299C392.39,85.031 373.68,115.499 373.68,146.785C373.68,180.213 391.736,215.744 414.292,238.975C428.765,253.881 448.131,267.115 465.942,267.115C483.753,267.115 497.148,262.585 509.447,254.323C514.532,250.907 520.518,252.755 524.85,257.087C529.881,262.118 526.911,269.334 521.826,272.75C505.433,283.762 479.346,289.62 459.182,286.797C437.062,283.701 416.683,267.989 398.534,249.295C390.364,240.881 382.252,231.269 376.041,221.578C362.2,199.979 354.655,175.887 354.655,148.902C354.655,111.193 374.607,80.016 404.126,55.027C433.203,30.414 467.19,14.51 500.24,14.51C520.96,14.51 546.913,19.282 573.613,34.468C612.761,56.732 657.002,91.917 674.453,131.805C676.134,135.647 677.355,139.533 678.164,143.464C682.071,137.73 686.425,131.858 691.274,125.93C717.465,93.913 759.032,56.306 804.164,56.306C844.28,56.306 868.932,84.618 878.388,118.144C887.505,150.468 886.527,180.57 875.476,197.146C872.078,202.244 865.363,206.321 859.237,206.321C849.216,206.321 849.035,194.163 852.433,189.066C861.096,176.071 865.016,147.605 857.869,122.265C851.061,98.128 835.586,76.389 806.704,76.389C768.607,76.389 739.032,99.413 716.923,126.44C682.058,169.061 668.2,219.603 668.2,219.603C666.383,225.453 658.966,230.245 653.115,228.428C652.525,228.245 651.961,228.017 651.426,227.748Z" style="fill:rgb(244,63,94);"/>
    <g>
        <g transform="matrix(1.97125,0,0,1.97125,-931.941,-719.269)">
            <path d="M623.077,537.574C626.19,538.443 630.212,540.519 629.811,543.726C629.41,546.934 626.701,548.278 623.494,547.877C614.547,546.758 600.005,540.868 593.573,535.327C591.124,533.218 590.849,529.517 592.958,527.068C595.068,524.619 599.593,524.618 602.042,526.728C607.114,531.097 615.199,535.373 623.077,537.574Z" style="fill:rgb(244,63,94);"/>
        </g>
        <g transform="matrix(1.97125,0,0,1.97125,-931.941,-719.269)">
            <path d="M638.443,522.838C639.636,525.841 639.697,529.968 634.211,529.968C627.578,529.968 625.181,523.984 623.414,521.828C621.66,519.689 619.206,516.433 616.732,514.554C614.159,512.598 613.381,509.031 615.337,506.457C617.292,503.884 622.343,504.371 624.917,506.326C631.746,511.514 636.953,519.089 638.443,522.838Z" style="fill:rgb(244,63,94);"/>
        </g>
    </g>
    <g transform="matrix(1.97125,0,0,1.97125,-931.941,-719.269)">
        <path d="M1183.23,492.338C1186.23,491.144 1190.25,492.832 1191.44,495.836C1192.64,498.839 1191.05,500.877 1188.44,502.782C1185.26,505.103 1178.96,510.177 1178.96,510.177C1176.75,511.84 1169.48,512.679 1167.53,510.726C1164.23,507.427 1164.86,506.901 1160.53,501.781C1158.44,499.313 1158.75,495.615 1161.22,493.528C1163.69,491.441 1168.43,491.421 1170.52,493.889C1171.98,495.622 1173.19,496.914 1174.45,498.175C1177.73,495.882 1180.82,493.296 1183.23,492.338Z" style="fill:rgb(244,63,94);"/>
    </g>
    <g transform="matrix(1.97125,0,0,1.97125,-931.941,-719.269)">
        <path d="M1418.64,679.126C1418.64,679.126 1399.72,674.552 1369.07,670.145C1328.71,664.342 1286.1,660.918 1250.54,655.481C1247.15,654.95 1246.1,653.56 1246.62,650.162C1247.01,647.689 1248.64,645.139 1252.63,645.763C1301.23,653.356 1385.09,662.901 1420.11,671.022C1430.42,673.412 1439.55,674.958 1439.82,681.211C1439.88,682.486 1437.37,687.544 1431.43,687.544C1425.5,687.544 1412.85,687.845 1395.38,686.709C1324.26,682.084 1169.78,666.395 1043.12,664.142C978.891,663.051 817.455,666.749 707.845,675.075C643.103,679.993 580.509,686.65 530.415,696.119C497.34,702.37 498.338,705.678 489.482,707.244C484.626,708.103 480.775,706.961 479.897,703.592C479.018,700.224 481.297,697.377 484.665,696.498C486.399,696.046 527.305,689.202 529.091,688.886C579.507,679.973 642.306,673.083 707.328,668.223C838.642,658.408 978.886,656.105 1043.24,657.181C1081.02,657.818 1121.31,659.627 1161.14,661.903C1262.9,667.714 1361.7,676.841 1408.02,679.141C1413.39,679.408 1418.64,679.126 1418.64,679.126Z" style="fill:rgb(23,23,23);"/>
    </g>
    <g>
        <path d="M378.942,530.505C370.547,538.785 365.356,542.989 359.229,548.246C350.342,555.873 346.825,558.742 341.488,558.742C336.151,558.742 329.661,555.554 329.661,550.217C329.661,542.493 339.517,538.448 345.821,533.984C356.076,526.723 371.302,514.135 388.28,499.384C388.58,499.123 390.21,497.565 392.676,495.2C392.778,494.98 392.879,494.761 392.981,494.542C409.731,457.149 436.375,423.903 457.792,400.402C486.535,368.862 505.102,353.664 518.481,350.045C520.874,349.397 522.383,348.992 525.674,348.992C530.244,348.992 532.902,351.258 534.671,355.063C534.842,355.432 535.011,355.819 535.174,356.222C536.994,350.592 538.351,346.326 538.613,345.207C540.41,338.738 549.886,333.554 556.355,335.351C566.211,338.089 568.008,346.623 566.211,353.092C555.06,387.857 541.116,416.203 526.786,443.77C523.337,450.404 519.67,457.023 515.911,463.498C507.099,482.557 501.467,500.861 500.052,515.645C499.355,522.931 501.353,528.495 503.131,532.476C504.525,535.599 505.516,537.8 509.15,538.289C512.294,534.996 515.494,532.028 516.93,530.505C524.425,522.551 535.564,513.06 544.962,499.057C575.636,453.356 603.289,387.712 613.521,372.805C615.663,369.592 624.611,357.983 635.205,362.948C643.786,366.97 649.199,378.523 639.147,388.575C629.698,398.024 615.215,422.587 598.975,450.326C596.139,456.165 593.462,462.165 591.067,468.211C588.046,475.841 585.548,483.565 583.499,491.022C579.67,504.96 580.792,518.248 581.981,528.534C582.561,533.554 584.027,537.712 587.064,540.425C589.716,542.794 597.944,545.45 607.607,540.361C614.058,536.964 674.747,435.803 686.552,407.557C688.828,402.111 690.313,395.367 692.371,390.546C701.495,369.173 707.633,355.942 707.633,355.942C710.412,349.134 719.55,345.321 726.358,348.1C737.093,352.481 736.546,360.083 733.767,366.891C733.767,366.891 723.187,384.689 710.714,411.023C700.935,431.671 689.494,457.228 676.769,481.22C676.688,482.097 676.501,483.032 676.195,484.026C672.588,495.755 670.381,506.312 670.929,514.432C671.045,516.148 671.165,517.709 671.69,519.038C671.928,519.639 671.966,520.322 672.471,520.692C674.542,522.207 678.306,524.849 682.515,524.591C688.177,524.245 694.254,520.38 701.486,518.15C706.17,516.706 711.548,507.826 717.997,498.965C728.458,484.591 741.297,465.386 752.983,442.07C755.955,436.14 758.931,430.03 761.893,423.791C763.327,419.07 764.802,414.195 766.311,409.214C764.59,409.627 762.932,409.985 761.365,410.258C751.932,411.907 747.566,413.07 736.254,410.37C731.185,408.85 728.304,403.5 729.825,398.431C731.346,393.362 738.555,389.025 743.624,390.546C749.477,392.658 759.412,392.899 769.914,391.483C770.533,391.4 771.155,391.313 771.781,391.225C777.513,372.476 783.6,353.016 789.747,334.991C808.437,280.742 812.77,260.801 818.531,246.645C820.929,240.753 828.701,228.558 830.525,226.638C833.862,223.125 839.943,221.367 843.059,221.457C847.185,221.575 854.014,224.961 854.014,230.874C854.014,233.755 852.063,246.626 850.076,256.501C846.109,276.213 844.294,281.534 838.969,295.987C835.313,305.908 828.094,312.783 826.078,324.878C824.106,336.705 819.813,349.076 814.589,361.73C811.384,369.493 807.648,377.187 803.726,384.842C803.78,384.828 803.833,384.815 803.886,384.801C816.961,381.425 829.969,376.316 840.197,375.339C845.486,375.178 849.911,379.343 850.071,384.632C850.232,389.922 846.068,394.346 840.778,394.507C835.265,394.255 828.353,396.065 821.567,396.89C815.323,397.649 808.749,398.692 802.169,400.06C799.739,400.565 797.313,401.121 794.901,401.697C791.207,408.715 787.569,415.72 784.258,422.736C776.616,446.538 772.004,467.754 769.622,485.987C768.484,494.699 768.265,502.418 769.25,508.821C769.964,513.463 771.34,518.201 774.018,520.649C776.401,522.826 778.302,523.292 782.77,523.292C804.52,523.292 819.82,509.371 839.245,489.839C854.422,474.578 870.168,456.375 885.373,437.561C886.95,435.609 888.516,433.647 890.074,431.68C889.302,429.973 888.785,428.217 888.614,426.437C887.28,411.982 900.314,394.083 911.18,380.69C928.763,359.017 938.778,351.449 952.576,343.236C957.622,340.233 966.6,342.605 969.604,347.651C971.696,351.166 971.526,355.403 969.524,358.666C970.626,359.162 971.585,359.922 972.289,360.977C974.892,364.881 973.59,370.136 970.278,373.46C959.649,384.128 946.157,392.796 934.621,404.686C928.047,411.462 921.296,418.475 914.628,425.746C915.807,428.847 918.132,431.481 922.028,433.227C933.674,438.448 949.319,444.525 962.791,448.95C969.944,451.299 976.613,453.484 982.202,456.351C989.81,460.254 995.301,465.529 998.321,471.752C999.997,475.207 1000.65,479.086 1000.61,483.195C1000.45,486.436 1000.62,492.059 998.45,495.91C996.229,499.842 992.739,504.351 988.059,508.821C978.044,518.387 963.617,528.292 951.056,535.453C940.555,542.129 931.863,546.333 922.25,548.94C913.398,551.34 900.53,553.834 887.762,553.85C882.937,553.85 879.019,547.678 879.019,542.853C879.019,538.027 883.11,532.982 889.756,532.982C900.628,532.982 908.633,532.908 916.153,530.801C924.118,528.57 931.184,524.736 939.796,519.024C947.184,513.602 955.154,505.875 962.929,499.648C968.971,494.809 974.413,488.634 974.26,483.195C974.018,474.571 948.027,463.944 941.073,462.465C919.223,457.818 905.199,448.438 899.286,443.261C895.144,448.25 891.114,453.335 887.132,458.399C877.925,470.108 867.442,485.049 858.538,495.679C849.704,506.226 842.448,512.475 833.702,520.448C816.99,535.682 800.297,544.713 783.526,545.319C783.46,545.321 783.394,545.324 783.328,545.326C770.426,545.55 761.001,542.071 754.92,534.916C750.617,529.853 743.071,513.91 740.533,505.443C740.234,505.976 739.949,506.452 739.681,506.85C728.488,523.511 726.437,530.448 717.997,534.447C715.924,535.439 712.159,535.729 708.405,535.339C699.295,539.87 693.054,540.922 686.457,542.332C675.267,544.724 662.883,545.875 656.889,542.332C651.965,539.422 649.183,534.497 647.593,528.46C638.712,540.742 629.501,551.815 621.406,558.102C613.521,564.227 610.251,561.277 606.567,562.738C602.883,564.2 601.185,565.418 595.78,565.418C578.038,565.418 569.87,560.967 564.24,552.189C558.578,543.361 557.941,529.272 560.332,513.854C558.337,516.863 556.353,519.792 554.383,522.62C550.535,528.146 541.986,536.826 537.217,542.332C530.956,549.562 526.547,557.165 522.843,560.074C517.818,564.02 517.406,564.016 511.016,564.016C491.811,564.016 481.536,547.864 480.518,527.044C480.363,523.886 480.449,520.492 480.767,516.896C477.697,520.833 474.674,524.569 471.591,528.534C456.467,547.983 442.159,564.057 430.195,571.901C418.53,579.549 406.758,579.131 400.297,579.131C392.067,579.131 385.867,578.111 382.351,572.929C374.216,560.94 377.145,537.526 378.942,530.505ZM522.843,396.46C512.399,408.034 493.521,424.112 473.268,440.666C462.441,449.761 450.095,460.045 438.08,471.367C428.122,480.75 418.669,488.601 409.153,498.063C408.314,499.764 407.804,500.819 407.728,500.996C402.558,513.679 397.335,530.758 397.137,544.603C397.029,552.226 403.046,566.148 422.173,552.46C441.299,538.772 467.003,511.055 491.174,471.51C497.899,460.508 502.507,447.616 508.537,434.722C515.92,418.933 522.843,396.46 522.843,396.46ZM516.635,373.118C516.19,373.328 515.735,373.538 515.271,373.748C505.877,377.998 487.019,392.603 473.43,405.084C466.575,411.379 438.391,443.442 428.223,461.511C432.019,458.112 456.284,436.631 465.677,428C482.036,412.694 494.603,400.981 503.707,390.437C509.205,384.069 513.225,378.606 515.812,374.059C515.986,373.754 516.337,373.442 516.635,373.118Z" style="fill:rgb(23,23,23);"/>
        <path d="M1065.91,545.115C1058.41,551.23 1040.72,559.574 1035.37,559.574C1021.69,559.574 1011.69,556.597 1006.91,543.354C1001.44,528.176 1002.66,498.659 1008.7,473.05C1012.7,456.07 1015.75,445.084 1024.19,426.076C1032.62,407.069 1045.21,387.102 1056.37,375.987C1065.53,366.862 1075.68,361.768 1085.72,360.585C1092.88,359.944 1099.11,362.316 1103.67,366.823C1107.78,370.866 1110.83,377.058 1110.72,385.592C1110.62,393.015 1108.13,403.125 1100.82,415.198C1096.1,422.984 1089.52,429.651 1080.07,440.111C1067.74,453.749 1037.47,486.492 1025.32,490.85C1023.45,504.964 1022.95,519.849 1024.55,527.052C1026.3,534.887 1028.97,539.519 1036.02,539.452C1038.04,539.452 1048.87,535.378 1055.89,531C1057.34,528.6 1060.39,525.974 1066.52,522.948C1079.52,516.54 1092.48,506.046 1101.78,496.306C1105.62,492.238 1109.63,488.758 1113.12,484.34C1117.13,479.277 1123.37,471.534 1132.87,458.667C1135.02,447.508 1137.05,437.533 1137.68,434.345C1139.48,425.28 1141.43,415.985 1143.66,406.627C1154.63,360.65 1175.09,313.417 1190.41,282.035C1195.88,270.818 1200.31,260.316 1204.85,253.78C1209.25,247.438 1213.43,243.302 1216.59,241.271C1224.86,235.948 1231.57,237.948 1236.31,242.728C1241.33,247.816 1241.93,255.878 1242.7,264.608C1243.35,271.924 1242.42,280.697 1240.04,290.239C1233.72,315.644 1219.08,347.732 1207.17,371.211C1200.67,384.076 1186.02,404.905 1172.23,430.391C1167.69,438.771 1164.42,450.397 1159.33,459.259C1155.71,465.552 1151.59,471.297 1147.37,476.456C1147.03,478.607 1146.82,479.884 1146.82,479.884C1145.73,490.4 1144.08,501.436 1144.34,510.11C1144.62,519.619 1150.39,534.631 1152.76,534.631C1154.26,534.631 1156.22,533.598 1157.89,532.616C1164.31,528.839 1172.31,522.921 1180.5,516.014C1190.93,507.221 1199.04,496.697 1207.32,487.172C1209.73,484.364 1211.67,480.911 1214,478.089C1218.8,457.932 1226.68,436.793 1235.76,414.849C1252.67,373.984 1270.25,334.899 1284.53,305.521C1289.24,295.836 1295.39,279.117 1299.47,272.581C1304.78,264.069 1306.44,261.039 1309.9,258.267C1314.16,254.856 1318.16,253.949 1321.09,254.073C1325.05,254.239 1328.55,255.653 1331.27,258.895C1331.42,259.073 1331.53,259.319 1331.58,259.627C1332.56,260.084 1333.54,260.791 1334.53,261.773C1339.29,266.541 1335.36,271.962 1335.7,279.869C1335.99,286.702 1334.77,294.736 1332.15,303.453C1325.53,325.565 1312.92,352.656 1302.44,375.782C1298.61,384.371 1291.66,396.509 1284.58,409.254C1279.27,418.798 1271.88,428.613 1265.02,439.671C1256.02,454.166 1242.49,471.947 1233.1,484.465C1232.61,487.98 1232.14,491.077 1231.66,493.382C1231.63,493.524 1228.37,518.987 1230.69,527.216C1233.71,537.95 1237.09,546.006 1249.98,546.006C1258.21,546.006 1285.72,525.395 1301.37,498.904C1305.3,492.248 1308.89,485.153 1312.12,478.082C1316.12,457.333 1323.68,434.147 1325.36,427.889C1331.43,405.171 1339.09,376.336 1339.09,376.336C1340.84,369.61 1347.57,365.453 1354.37,366.902C1355.71,367.189 1356.84,367.647 1357.78,368.252C1357.9,368.273 1358.03,368.298 1358.16,368.325C1364.96,369.774 1366.7,375.978 1365.55,382.833C1364.93,386.871 1364.57,390.884 1363.6,394.69C1361.14,404.379 1356.8,412.681 1353.96,421.265C1345.72,446.125 1338.33,467.22 1330.43,484.663C1329.78,486.107 1329.12,487.581 1328.45,489.084C1327.86,499.614 1328.45,510.147 1328.93,519.343C1329.5,530.245 1333.7,550.166 1344.62,550.166C1357.34,550.166 1375.63,542.982 1393.26,526.084C1393.3,526.043 1393.46,525.859 1393.73,525.542C1393.99,523.635 1394.32,521.682 1394.74,519.694C1397.39,507.068 1404.9,492.854 1410.29,481.801C1418.19,465.593 1428.49,449.318 1438.99,433.446C1456.99,406.253 1476.28,382.32 1490.49,369.664C1497.13,363.757 1503.01,360.154 1507.19,358.748C1509.48,357.976 1513.53,356.221 1517.4,356.632C1520.78,356.991 1524.72,358.131 1526.9,360.32C1529.34,360.448 1531.42,362.061 1532.61,364.728C1534.96,363.71 1537.54,363.54 1540.37,364.577C1545.65,366.515 1551.57,378.127 1547.42,386.469C1544.09,393.17 1539.24,407.713 1531.07,428.778C1524.29,455.347 1517.16,488.047 1515.17,514.593C1514.35,525.518 1514.82,535.221 1516.29,542.935C1517.25,547.975 1518.27,552.599 1521.29,554.262C1525.82,556.753 1527.05,562.029 1524.56,566.558C1522.07,571.088 1519.21,573.653 1514.04,573.653C1506.61,573.653 1499.55,569.063 1496.95,560.337C1494.12,550.798 1493.25,534.554 1494.3,519.265C1489.81,523.575 1479.74,529.85 1476.55,532.09C1473.2,534.45 1470.46,536.559 1468.07,538.506C1461.81,544.389 1455.59,549.397 1449.61,553.352C1438.75,560.534 1434.9,567.681 1419.34,567.726C1405.21,567.767 1398.39,559.612 1395.9,555.189C1391.45,559.47 1366.86,569.052 1348.21,571.609C1345.51,572.895 1342.6,573.653 1340.19,573.653C1313.49,573.653 1316.38,561.754 1314.24,550.309C1313.02,543.783 1311.7,527.247 1311.52,519.174C1285.15,555.282 1278.28,563.066 1245.37,563.066C1234.42,563.066 1220.12,553.775 1212.38,546.037C1208.61,542.266 1208.16,529.131 1209.05,515.145C1199.58,525.364 1189.34,536.739 1180.12,544.089C1172.7,550.012 1165.67,552.394 1160.68,554.648C1158.37,555.692 1156.25,556.3 1154.4,556.612C1153.53,556.84 1152.61,556.962 1151.67,556.962C1123.64,556.962 1124.94,517.249 1126.52,497.729C1121.6,502.049 1117.81,505.058 1116.28,506.65C1104.25,519.338 1087.62,532.35 1072.55,542.096C1070.23,543.591 1067.98,544.58 1065.91,545.115ZM1218.29,274.196C1217.07,276.499 1213.71,278.328 1203.33,295.378C1187.56,321.291 1177.14,351.573 1162.52,397.393C1159.16,407.911 1156.07,418.457 1153.63,428.858C1153.76,428.708 1153.83,428.845 1153.85,429.228C1155.36,427.055 1156.91,424.802 1158.51,422.468C1159.15,421.523 1159.71,420.529 1160.28,419.549C1173.78,396.282 1182.87,375.157 1188.34,362.782C1196.87,343.366 1207.88,318.076 1214.08,295.972C1216.26,288.214 1218.23,280.921 1218.29,274.493C1218.28,274.398 1218.28,274.299 1218.29,274.196ZM1476.41,412.006C1468.3,421.019 1459.74,431.182 1451.79,442.266C1442.95,454.574 1434.68,467.479 1427.8,480.403C1426.07,483.666 1424.43,486.935 1422.9,490.2C1436.28,473.914 1450.55,456.453 1457.21,448.1C1468.96,433.074 1479.82,422.715 1487.41,412.5C1490.51,408.321 1493.16,404.422 1495.49,400.84C1499.65,394.443 1504.04,388.4 1507.01,383.701C1505.18,385.214 1503.94,386.199 1503.77,386.328C1495.79,392.408 1487.11,400.113 1476.41,412.006ZM1413.67,530.962C1413.52,534.439 1413.55,536.887 1413.69,537.568C1414.8,542.861 1417.58,546.986 1421.53,546.901C1427.55,546.772 1432.79,541.6 1440.31,536.43C1446.63,532.08 1455.25,525.861 1463.08,518.77C1464.82,516.876 1466.56,514.913 1468.28,512.884C1472.05,508.468 1475.69,503.281 1479.18,497.559C1480.37,494.823 1481.51,492.044 1482.84,489.407C1487.21,480.741 1492.53,472.497 1497.3,461.236C1507.38,437.404 1510.11,419.817 1513.98,404.359C1511.71,407.237 1509.41,410.051 1507.26,412.484C1504.42,415.711 1481.3,443.652 1468.24,457.527C1451.64,480.287 1437.44,499.922 1424.45,516.149C1421.32,520.757 1418.05,525.161 1414.07,529.596C1414.05,529.929 1413.91,530.392 1413.67,530.962ZM1085.3,385.233C1079.18,386.198 1073.13,390.314 1067.17,396.14C1059.71,403.442 1052.29,412.966 1046.1,424.124C1040.38,434.418 1036.23,445.011 1033.74,457.596C1047.13,445.313 1056.61,436.855 1064.74,426.714C1076.26,412.357 1082.48,400.841 1084.99,392.044C1085.63,389.823 1085.49,387.56 1085.3,385.233ZM1298.61,321.933C1298.34,319.63 1297.34,319.164 1295.44,322.625C1278.84,352.916 1260.44,389.52 1245.53,430.402C1244.57,433.044 1243.63,435.683 1242.73,438.315C1245.53,434.126 1247.68,430.832 1248.78,429.101C1255.52,418.426 1263.03,406.944 1267.9,397.532C1274.29,385.179 1279.11,377.183 1282.35,368.82C1286.88,356.869 1291.02,349.094 1296.17,336.148C1297.98,331.606 1298.93,325.367 1298.63,322.177C1298.63,322.094 1298.62,322.012 1298.61,321.933Z" style="fill:rgb(23,23,23);"/>
    </g>
</svg>
