<svg xmlns="http://www.w3.org/2000/svg"
	viewBox="0 0 1920 690">
	<path
		d="M1289.31 503.59c1.37-2.929 5.7-4.356 8.62-2.979 4.13 1.941 4.66 3.354 2.5 9.069-4.86 12.831-6.7 15.423-7.82 19.26-1.11 3.836-3.94 5.372-7.62 5.372-3.67 0-5.97-3.606-4.9-6.653 2.67-7.528 7.01-19.372 9.22-24.069ZM1316.15 513.207c2.53-1.697 6.47-2.678 8.84-.477a5.858 5.858 0 0 1 .3 8.277s-8.85 9.863-12.01 12.771c-2.2 2.019-7.57 3.254-9.94 1.053-2.36-2.201-1.83-5.452.37-7.819 0 0 3.06-3.312 6.31-7.045 2.29-2.626 3.24-4.82 6.13-6.76Z"
		style="fill:#f43f5e" transform="translate(-931.941 -719.269) scale(1.97125)" />
	<path
		d="M651.426 227.748a11.084 11.084 0 0 1-9.663-.422c-5.392-2.908-8.627-7.75-5.719-13.142 14.311-26.533 22.975-56.06 14.557-78.764-13.587-36.647-53.646-71.741-88.79-91.728-22.828-12.983-46.238-15.979-63.952-15.979-28.343 0-56.042 15.478-80.977 36.586-24.492 20.732-43.202 51.2-43.202 82.486 0 33.428 18.056 68.959 40.612 92.19 14.473 14.906 33.839 28.14 51.65 28.14s31.206-4.53 43.505-12.792c5.085-3.416 11.071-1.568 15.403 2.764 5.031 5.031 2.061 12.247-3.024 15.663-16.393 11.012-42.48 16.87-62.644 14.047-22.12-3.096-42.499-18.808-60.648-37.502-8.17-8.414-16.282-18.026-22.493-27.717-13.841-21.599-21.386-45.691-21.386-72.676 0-37.709 19.952-68.886 49.471-93.875C433.203 30.414 467.19 14.51 500.24 14.51c20.72 0 46.673 4.772 73.373 19.958 39.148 22.264 83.389 57.449 100.84 97.337a58.32 58.32 0 0 1 3.711 11.659 250.289 250.289 0 0 1 13.11-17.534c26.191-32.017 67.758-69.624 112.89-69.624 40.116 0 64.768 28.312 74.224 61.838 9.117 32.324 8.139 62.426-2.912 79.002-3.398 5.098-10.113 9.175-16.239 9.175-10.021 0-10.202-12.158-6.804-17.255 8.663-12.995 12.583-41.461 5.436-66.801-6.808-24.137-22.283-45.876-51.165-45.876-38.097 0-67.672 23.024-89.781 50.051-34.865 42.621-48.723 93.163-48.723 93.163-1.817 5.85-9.234 10.642-15.085 8.825a11.034 11.034 0 0 1-1.689-.68Z"
		style="fill:#f43f5e" />
	<path
		d="M623.077 537.574c3.113.869 7.135 2.945 6.734 6.152-.401 3.208-3.11 4.552-6.317 4.151-8.947-1.119-23.489-7.009-29.921-12.55a5.86 5.86 0 0 1-.615-8.259c2.11-2.449 6.635-2.45 9.084-.34 5.072 4.369 13.157 8.645 21.035 10.846ZM638.443 522.838c1.193 3.003 1.254 7.13-4.232 7.13-6.633 0-9.03-5.984-10.797-8.14-1.754-2.139-4.208-5.395-6.682-7.274-2.573-1.956-3.351-5.523-1.395-8.097 1.955-2.573 7.006-2.086 9.58-.131 6.829 5.188 12.036 12.763 13.526 16.512ZM1183.23 492.338c3-1.194 7.02.494 8.21 3.498 1.2 3.003-.39 5.041-3 6.946-3.18 2.321-9.48 7.395-9.48 7.395-2.21 1.663-9.48 2.502-11.43.549-3.3-3.299-2.67-3.825-7-8.945a5.854 5.854 0 0 1 .69-8.253c2.47-2.087 7.21-2.107 9.3.361a65.47 65.47 0 0 0 3.93 4.286c3.28-2.293 6.37-4.879 8.78-5.837Z"
		style="fill:#f43f5e" transform="translate(-931.941 -719.269) scale(1.97125)" />
	<g class="contrastFill">
		<path
			d="M1418.64 679.126s-18.92-4.574-49.57-8.981c-40.36-5.803-82.97-9.227-118.53-14.664-3.39-.531-4.44-1.921-3.92-5.319.39-2.473 2.02-5.023 6.01-4.399 48.6 7.593 132.46 17.138 167.48 25.259 10.31 2.39 19.44 3.936 19.71 10.189.06 1.275-2.45 6.333-8.39 6.333-5.93 0-18.58.301-36.05-.835-71.12-4.625-225.6-20.314-352.26-22.567-64.229-1.091-225.665 2.607-335.275 10.933-64.742 4.918-127.336 11.575-177.43 21.044-33.075 6.251-32.077 9.559-40.933 11.125-4.856.859-8.707-.283-9.585-3.652-.879-3.368 1.4-6.215 4.768-7.094 1.734-.452 42.64-7.296 44.426-7.612 50.416-8.913 113.215-15.803 178.237-20.663 131.314-9.815 271.558-12.118 335.912-11.042 37.78.637 78.07 2.446 117.9 4.722 101.76 5.811 200.56 14.938 246.88 17.238 5.37.267 10.62-.015 10.62-.015Z"
			transform="translate(-931.941 -719.269) scale(1.97125)" />
		<path
			d="M378.942 530.505c-8.395 8.28-13.586 12.484-19.713 17.741-8.887 7.627-12.404 10.496-17.741 10.496s-11.827-3.188-11.827-8.525c0-7.724 9.856-11.769 16.16-16.233 10.255-7.261 25.481-19.849 42.459-34.6.3-.261 1.93-1.819 4.396-4.184l.305-.658c16.75-37.393 43.394-70.639 64.811-94.14 28.743-31.54 47.31-46.738 60.689-50.357 2.393-.648 3.902-1.053 7.193-1.053 4.57 0 7.228 2.266 8.997 6.071.171.369.34.756.503 1.159 1.82-5.63 3.177-9.896 3.439-11.015 1.797-6.469 11.273-11.653 17.742-9.856 9.856 2.738 11.653 11.272 9.856 17.741-11.151 34.765-25.095 63.111-39.425 90.678a485.8 485.8 0 0 1-10.875 19.728c-8.812 19.059-14.444 37.363-15.859 52.147-.697 7.286 1.301 12.85 3.079 16.831 1.394 3.123 2.385 5.324 6.019 5.813 3.144-3.293 6.344-6.261 7.78-7.784 7.495-7.954 18.634-17.445 28.032-31.448 30.674-45.701 58.327-111.345 68.559-126.252 2.142-3.213 11.09-14.822 21.684-9.857 8.581 4.022 13.994 15.575 3.942 25.627-9.449 9.449-23.932 34.012-40.172 61.751-2.836 5.839-5.513 11.839-7.908 17.885-3.021 7.63-5.519 15.354-7.568 22.811-3.829 13.938-2.707 27.226-1.518 37.512.58 5.02 2.046 9.178 5.083 11.891 2.652 2.369 10.88 5.025 20.543-.064 6.451-3.397 67.14-104.558 78.945-132.804 2.276-5.446 3.761-12.19 5.819-17.011 9.124-21.373 15.262-34.604 15.262-34.604 2.779-6.808 11.917-10.621 18.725-7.842 10.735 4.381 10.188 11.983 7.409 18.791 0 0-10.58 17.798-23.053 44.132-9.779 20.648-21.22 46.205-33.945 70.197a13.894 13.894 0 0 1-.574 2.806c-3.607 11.729-5.814 22.286-5.266 30.406.116 1.716.236 3.277.761 4.606.238.601.276 1.284.781 1.654 2.071 1.515 5.835 4.157 10.044 3.899 5.662-.346 11.739-4.211 18.971-6.441 4.684-1.444 10.062-10.324 16.511-19.185 10.461-14.374 23.3-33.579 34.986-56.895a954.603 954.603 0 0 0 8.91-18.279c1.434-4.721 2.909-9.596 4.418-14.577a80.946 80.946 0 0 1-4.946 1.044c-9.433 1.649-13.799 2.812-25.111.112-5.069-1.52-7.95-6.87-6.429-11.939s8.73-9.406 13.799-7.885c5.853 2.112 15.788 2.353 26.29.937.619-.083 1.241-.17 1.867-.258 5.732-18.749 11.819-38.209 17.966-56.234 18.69-54.249 23.023-74.19 28.784-88.346 2.398-5.892 10.17-18.087 11.994-20.007 3.337-3.513 9.418-5.271 12.534-5.181 4.126.118 10.955 3.504 10.955 9.417 0 2.881-1.951 15.752-3.938 25.627-3.967 19.712-5.782 25.033-11.107 39.486-3.656 9.921-10.875 16.796-12.891 28.891-1.972 11.827-6.265 24.198-11.489 36.852-3.205 7.763-6.941 15.457-10.863 23.112l.16-.041c13.075-3.376 26.083-8.485 36.311-9.462 5.289-.161 9.714 4.004 9.874 9.293.161 5.29-4.003 9.714-9.293 9.875-5.513-.252-12.425 1.558-19.211 2.383a235.534 235.534 0 0 0-19.398 3.17c-2.43.505-4.856 1.061-7.268 1.637-3.694 7.018-7.332 14.023-10.643 21.039-7.642 23.802-12.254 45.018-14.636 63.251-1.138 8.712-1.357 16.431-.372 22.834.714 4.642 2.09 9.38 4.768 11.828 2.383 2.177 4.284 2.643 8.752 2.643 21.75 0 37.05-13.921 56.475-33.453 15.177-15.261 30.923-33.464 46.128-52.278a780.572 780.572 0 0 0 4.701-5.881c-.772-1.707-1.289-3.463-1.46-5.243-1.334-14.455 11.7-32.354 22.566-45.747 17.583-21.673 27.598-29.241 41.396-37.454 5.046-3.003 14.024-.631 17.028 4.415a10.641 10.641 0 0 1-.08 11.015c1.102.496 2.061 1.256 2.765 2.311 2.603 3.904 1.301 9.159-2.011 12.483-10.629 10.668-24.121 19.336-35.657 31.226-6.574 6.776-13.325 13.789-19.993 21.06 1.179 3.101 3.504 5.735 7.4 7.481 11.646 5.221 27.291 11.298 40.763 15.723 7.153 2.349 13.822 4.534 19.411 7.401 7.608 3.903 13.099 9.178 16.119 15.401 1.676 3.455 2.329 7.334 2.289 11.443-.16 3.241.01 8.864-2.16 12.715-2.221 3.932-5.711 8.441-10.391 12.911-10.015 9.566-24.442 19.471-37.003 26.632-10.501 6.676-19.193 10.88-28.806 13.487-8.852 2.4-21.72 4.894-34.488 4.91-4.825 0-8.743-6.172-8.743-10.997 0-4.826 4.091-9.871 10.737-9.871 10.872 0 18.877-.074 26.397-2.181 7.965-2.231 15.031-6.065 23.643-11.777 7.388-5.422 15.358-13.149 23.133-19.376 6.042-4.839 11.484-11.014 11.331-16.453-.242-8.624-26.233-19.251-33.187-20.73-21.85-4.647-35.874-14.027-41.787-19.204-4.142 4.989-8.172 10.074-12.154 15.138-9.207 11.709-19.69 26.65-28.594 37.28-8.834 10.547-16.09 16.796-24.836 24.769-16.712 15.234-33.405 24.265-50.176 24.871l-.198.007c-12.902.224-22.327-3.255-28.408-10.41-4.303-5.063-11.849-21.006-14.387-29.473a20.709 20.709 0 0 1-.852 1.407c-11.193 16.661-13.244 23.598-21.684 27.597-2.073.992-5.838 1.282-9.592.892-9.11 4.531-15.351 5.583-21.948 6.993-11.19 2.392-23.574 3.543-29.568 0-4.924-2.91-7.706-7.835-9.296-13.872-8.881 12.282-18.092 23.355-26.187 29.642-7.885 6.125-11.155 3.175-14.839 4.636-3.684 1.462-5.382 2.68-10.787 2.68-17.742 0-25.91-4.451-31.54-13.229-5.662-8.828-6.299-22.917-3.908-38.335a462.086 462.086 0 0 1-5.949 8.766c-3.848 5.526-12.397 14.206-17.166 19.712-6.261 7.23-10.67 14.833-14.374 17.742-5.025 3.946-5.437 3.942-11.827 3.942-19.205 0-29.48-16.152-30.498-36.972-.155-3.158-.069-6.552.249-10.148-3.07 3.937-6.093 7.673-9.176 11.638-15.124 19.449-29.432 35.523-41.396 43.367-11.665 7.648-23.437 7.23-29.898 7.23-8.23 0-14.43-1.02-17.946-6.202-8.135-11.989-5.206-35.403-3.409-42.424ZM522.843 396.46c-10.444 11.574-29.322 27.652-49.575 44.206-10.827 9.095-23.173 19.379-35.188 30.701-9.958 9.383-19.411 17.234-28.927 26.696-.839 1.701-1.349 2.756-1.425 2.933-5.17 12.683-10.393 29.762-10.591 43.607-.108 7.623 5.909 21.545 25.036 7.857 19.126-13.688 44.83-41.405 69.001-80.95 6.725-11.002 11.333-23.894 17.363-36.788 7.383-15.789 14.306-38.262 14.306-38.262Zm-6.208-23.342c-.445.21-.9.42-1.364.63-9.394 4.25-28.252 18.855-41.841 31.336-6.855 6.295-35.039 38.358-45.207 56.427 3.796-3.399 28.061-24.88 37.454-33.511 16.359-15.306 28.926-27.019 38.03-37.563 5.498-6.368 9.518-11.831 12.105-16.378.174-.305.525-.617.823-.941ZM1065.91 545.115c-7.5 6.115-25.19 14.459-30.54 14.459-13.68 0-23.68-2.977-28.46-16.22-5.47-15.178-4.25-44.695 1.79-70.304 4-16.98 7.05-27.966 15.49-46.974 8.43-19.007 21.02-38.974 32.18-50.089 9.16-9.125 19.31-14.219 29.35-15.402 7.16-.641 13.39 1.731 17.95 6.238 4.11 4.043 7.16 10.235 7.05 18.769-.1 7.423-2.59 17.533-9.9 29.606-4.72 7.786-11.3 14.453-20.75 24.913-12.33 13.638-42.6 46.381-54.75 50.739-1.87 14.114-2.37 28.999-.77 36.202 1.75 7.835 4.42 12.467 11.47 12.4 2.02 0 12.85-4.074 19.87-8.452 1.45-2.4 4.5-5.026 10.63-8.052 13-6.408 25.96-16.902 35.26-26.642 3.84-4.068 7.85-7.548 11.34-11.966 4.01-5.063 10.25-12.806 19.75-25.673 2.15-11.159 4.18-21.134 4.81-24.322 1.8-9.065 3.75-18.36 5.98-27.718 10.97-45.977 31.43-93.21 46.75-124.592 5.47-11.217 9.9-21.719 14.44-28.255 4.4-6.342 8.58-10.478 11.74-12.509 8.27-5.323 14.98-3.323 19.72 1.457 5.02 5.088 5.62 13.15 6.39 21.88.65 7.316-.28 16.089-2.66 25.631-6.32 25.405-20.96 57.493-32.87 80.972-6.5 12.865-21.15 33.694-34.94 59.18-4.54 8.38-7.81 20.006-12.9 28.868-3.62 6.293-7.74 12.038-11.96 17.197-.34 2.151-.55 3.428-.55 3.428-1.09 10.516-2.74 21.552-2.48 30.226.28 9.509 6.05 24.521 8.42 24.521 1.5 0 3.46-1.033 5.13-2.015 6.42-3.777 14.42-9.695 22.61-16.602 10.43-8.793 18.54-19.317 26.82-28.842 2.41-2.808 4.35-6.261 6.68-9.083 4.8-20.157 12.68-41.296 21.76-63.24 16.91-40.865 34.49-79.95 48.77-109.328 4.71-9.685 10.86-26.404 14.94-32.94 5.31-8.512 6.97-11.542 10.43-14.314 4.26-3.411 8.26-4.318 11.19-4.194 3.96.166 7.46 1.58 10.18 4.822.15.178.26.424.31.732.98.457 1.96 1.164 2.95 2.146 4.76 4.768.83 10.189 1.17 18.096.29 6.833-.93 14.867-3.55 23.584-6.62 22.112-19.23 49.203-29.71 72.329-3.83 8.589-10.78 20.727-17.86 33.472-5.31 9.544-12.7 19.359-19.56 30.417-9 14.495-22.53 32.276-31.92 44.794-.49 3.515-.96 6.612-1.44 8.917-.03.142-3.29 25.605-.97 33.834 3.02 10.734 6.4 18.79 19.29 18.79 8.23 0 35.74-20.611 51.39-47.102 3.93-6.656 7.52-13.751 10.75-20.822 4-20.749 11.56-43.935 13.24-50.193 6.07-22.718 13.73-51.553 13.73-51.553 1.75-6.726 8.48-10.883 15.28-9.434 1.34.287 2.47.745 3.41 1.35.12.021.25.046.38.073 6.8 1.449 8.54 7.653 7.39 14.508-.62 4.038-.98 8.051-1.95 11.857-2.46 9.689-6.8 17.991-9.64 26.575-8.24 24.86-15.63 45.955-23.53 63.398-.65 1.444-1.31 2.918-1.98 4.421-.59 10.53 0 21.063.48 30.259.57 10.902 4.77 30.823 15.69 30.823 12.72 0 31.01-7.184 48.64-24.082.04-.041.2-.225.47-.542.26-1.907.59-3.86 1.01-5.848 2.65-12.626 10.16-26.84 15.55-37.893 7.9-16.208 18.2-32.483 28.7-48.355 18-27.193 37.29-51.126 51.5-63.782 6.64-5.907 12.52-9.51 16.7-10.916 2.29-.772 6.34-2.527 10.21-2.116 3.38.359 7.32 1.499 9.5 3.688 2.44.128 4.52 1.741 5.71 4.408 2.35-1.018 4.93-1.188 7.76-.151 5.28 1.938 11.2 13.55 7.05 21.892-3.33 6.701-8.18 21.244-16.35 42.309-6.78 26.569-13.91 59.269-15.9 85.815-.82 10.925-.35 20.628 1.12 28.342.96 5.04 1.98 9.664 5 11.327 4.53 2.491 5.76 7.767 3.27 12.296-2.49 4.53-5.35 7.095-10.52 7.095-7.43 0-14.49-4.59-17.09-13.316-2.83-9.539-3.7-25.783-2.65-41.072-4.49 4.31-14.56 10.585-17.75 12.825-3.35 2.36-6.09 4.469-8.48 6.416-6.26 5.883-12.48 10.891-18.46 14.846-10.86 7.182-14.71 14.329-30.27 14.374-14.13.041-20.95-8.114-23.44-12.537-4.45 4.281-29.04 13.863-47.69 16.42-2.7 1.286-5.61 2.044-8.02 2.044-26.7 0-23.81-11.899-25.95-23.344-1.22-6.526-2.54-23.062-2.72-31.135-26.37 36.108-33.24 43.892-66.15 43.892-10.95 0-25.25-9.291-32.99-17.029-3.77-3.771-4.22-16.906-3.33-30.892-9.47 10.219-19.71 21.594-28.93 28.944-7.42 5.923-14.45 8.305-19.44 10.559-2.31 1.044-4.43 1.652-6.28 1.964-.87.228-1.79.35-2.73.35-28.03 0-26.73-39.713-25.15-59.233-4.92 4.32-8.71 7.329-10.24 8.921-12.03 12.688-28.66 25.7-43.73 35.446-2.32 1.495-4.57 2.484-6.64 3.019Zm152.38-270.919c-1.22 2.303-4.58 4.132-14.96 21.182-15.77 25.913-26.19 56.195-40.81 102.015-3.36 10.518-6.45 21.064-8.89 31.465.13-.15.2-.013.22.37 1.51-2.173 3.06-4.426 4.66-6.76.64-.945 1.2-1.939 1.77-2.919 13.5-23.267 22.59-44.392 28.06-56.767 8.53-19.416 19.54-44.706 25.74-66.81 2.18-7.758 4.15-15.051 4.21-21.479a1.473 1.473 0 0 1 0-.297Zm258.12 137.81c-8.11 9.013-16.67 19.176-24.62 30.26-8.84 12.308-17.11 25.213-23.99 38.137a222.517 222.517 0 0 0-4.9 9.797c13.38-16.286 27.65-33.747 34.31-42.1 11.75-15.026 22.61-25.385 30.2-35.6a228.56 228.56 0 0 0 8.08-11.66c4.16-6.397 8.55-12.44 11.52-17.139a166.527 166.527 0 0 1-3.24 2.627c-7.98 6.08-16.66 13.785-27.36 25.678Zm-62.74 118.956c-.15 3.477-.12 5.925.02 6.606 1.11 5.293 3.89 9.418 7.84 9.333 6.02-.129 11.26-5.301 18.78-10.471 6.32-4.35 14.94-10.569 22.77-17.66 1.74-1.894 3.48-3.857 5.2-5.886 3.77-4.416 7.41-9.603 10.9-15.325 1.19-2.736 2.33-5.515 3.66-8.152 4.37-8.666 9.69-16.91 14.46-28.171 10.08-23.832 12.81-41.419 16.68-56.877-2.27 2.878-4.57 5.692-6.72 8.125-2.84 3.227-25.96 31.168-39.02 45.043-16.6 22.76-30.8 42.395-43.79 58.622-3.13 4.608-6.4 9.012-10.38 13.447-.02.333-.16.796-.4 1.366ZM1085.3 385.233c-6.12.965-12.17 5.081-18.13 10.907-7.46 7.302-14.88 16.826-21.07 27.984-5.72 10.294-9.87 20.887-12.36 33.472 13.39-12.283 22.87-20.741 31-30.882 11.52-14.357 17.74-25.873 20.25-34.67.64-2.221.5-4.484.31-6.811Zm213.31-63.3c-.27-2.303-1.27-2.769-3.17.692-16.6 30.291-35 66.895-49.91 107.777a441.23 441.23 0 0 0-2.8 7.913c2.8-4.189 4.95-7.483 6.05-9.214 6.74-10.675 14.25-22.157 19.12-31.569 6.39-12.353 11.21-20.349 14.45-28.712 4.53-11.951 8.67-19.726 13.82-32.672 1.81-4.542 2.76-10.781 2.46-13.971 0-.083-.01-.165-.02-.244Z"
		/>
	</g>
	<style>
		.contrastFill { fill: #000; }
		@media (prefers-color-scheme: dark) {
		.contrastFill { fill: #FFF; }
		}
	</style>
</svg>
