<svg xmlns="http://www.w3.org/2000/svg" xml:space="preserve" style="fill-rule:evenodd;clip-rule:evenodd;stroke-linejoin:round;stroke-miterlimit:2" viewBox="0 0 772 269"><path d="M235.851 49.374c7.506-6.684 17.791-11.109 31.776-10.134 6.378.445 11.829 1.919 16.489 4.093 6.321-1.686 13.157-2.357 20.536-1.842 9.502.662 17.689 3.16 24.703 7.075 8.118-2.959 16.779-4.182 26.008-3.538q.96.066 1.898.156a32 32 0 0 1 3.88-7.427 32.06 32.06 0 0 1 50.032-31.583 32.06 32.06 0 0 1 32.06 13.886c10.105-6.174 22.883-9.943 38.689-10.177l.13-.002 5.321-.056.086-.001c15.057-.116 24.911 5.918 31.347 13.521 5.813 6.867 8.974 14.707 9.45 23.532a39.5 39.5 0 0 1 8.472 4.382c6.361-5.427 14.895-9.256 26.298-9.851 9.212-.481 16.779 1.326 22.977 4.5 6.653-3.986 14.979-6.293 25.362-5.64 6.523.41 12.085 1.902 16.828 4.125l.409-.106a32.03 32.03 0 0 1 3.743-21.951c6.513-11.281 19.134-17.411 31.858-15.766a32.06 32.06 0 0 1 51.24 29.583c7.786 10.197 8.788 24.192 2.275 35.473a29 29 0 0 1-.436.73c1.171 3.887 1.902 8.199 2.063 12.984l.354 10.537c7.086 2.054 13.32 4.416 18.566 7.031 16.138 8.047 25.568 19.356 29.868 31.299 3.606 10.013 4.207 21.231-.128 33.778-6.363 18.415-24.49 35.112-54.573 44.51-41.904 13.091-113.455 15.096-173.566 18.397-15.953.876-30.989 1.825-44.09 3.274-5.179 19.629-23.356 35.471-46.668 34.636-11.961-.428-22.718-5.295-30.691-12.942l-2.564-.319c-12.651-1.587-28.52-3.937-46.518-6.547-85.225-12.362-218.508-32.45-276.937-41.284-5.662 3.595-12.699 5.999-21.432 6.562-14.066.908-24.379-3.559-31.871-10.231a40 40 0 0 1-4.804-5.088l-6.817-1.038c-17.385-2.568-29.539-18.67-27.183-36.136 1.732-12.832 10.828-22.869 22.405-26.458L19.48 85.482c-.895-13.868 3.404-24.037 9.708-31.406 6.546-7.653 16.16-13.438 30.181-14.343 6.553-.423 12.281.351 17.282 1.95 6.281-2.633 13.116-4.243 20.538-4.722 13.294-.858 25.131 1.867 35.621 7.656a62.6 62.6 0 0 1 12.154 8.726q7.596-6.376 17.151-10.414c10.978-4.635 23.504-6.648 37.668-5.402 14.127 1.243 26.084 5.395 36.068 11.847" style="fill:#fdf2f8"/><path d="M328.714 56.355c8.083-3.5 16.795-4.998 26.162-4.344 2.674.186 5.222.514 7.647.974a25 25 0 0 1 5.815-13.096l.362-.424-.145-.537a25.057 25.057 0 0 1 40.486-25.556l.423.362.538-.145a25.056 25.056 0 0 1 30.523 17.001q.252-.21.506-.417c9.893-8.056 23.388-13.03 40.995-13.291l.099-.001 5.322-.056.066-.001c12.439-.096 20.634 4.763 25.95 11.044 5.347 6.316 7.976 13.63 7.852 21.954a37 37 0 0 1-.101 2.257c6.175 1.385 11.159 4.185 15.142 7.773q.445.4.877.819.335-.402.68-.79c5.565-6.26 13.726-10.869 25.477-11.482 9.599-.501 17.095 1.878 22.889 5.796 6.056-4.702 14.096-7.604 24.646-6.941 6.61.416 12.062 2.108 16.544 4.636 3.196-1.017 6.622-1.756 10.285-2.2a25.056 25.056 0 0 1 27.912-35.757l.543.123.409-.378a25.056 25.056 0 0 1 41.462 23.938l-.123.543.378.409a25.055 25.055 0 0 1 1.164 32.713c1.641 4.109 2.667 8.847 2.85 14.294l.528 15.699c8.671 2.212 16.177 4.863 22.265 7.899 14.196 7.078 22.622 16.899 26.405 27.405 3.109 8.633 3.579 18.304-.159 29.121-5.794 16.772-22.646 31.556-50.044 40.115-41.489 12.961-112.346 14.82-171.862 18.088-18.193.999-35.205 2.099-49.561 3.907-2.551 18.716-18.972 34.771-40.563 33.998-10.981-.393-20.77-5.182-27.672-12.6q-2.39-.29-4.961-.612c-12.615-1.582-28.439-3.926-46.385-6.529-86.572-12.557-222.741-33.088-279.635-41.692-5.097 3.828-11.705 6.365-20.19 6.913-11.797.761-20.481-2.878-26.765-8.474a33 33 0 0 1-5.524-6.342l-9.711-1.478c-13.612-2.001-23.132-14.606-21.287-28.277 1.611-11.94 11.366-20.793 22.848-21.738l-3.611-55.947c-.751-11.644 2.749-20.217 8.042-26.405 5.48-6.407 13.575-11.15 25.313-11.907 6.663-.43 12.324.563 17.115 2.507 6.243-2.99 13.132-4.791 20.704-5.28 11.862-.765 22.43 1.634 31.789 6.799a55.6 55.6 0 0 1 15.307 12.4c5.615-5.885 12.313-10.477 20.103-13.767 10.003-4.224 21.425-6.014 34.331-4.878s23.84 4.893 32.952 10.798a63 63 0 0 1 4.602 3.278 33 33 0 0 1 3.74-3.936c6.287-5.617 14.943-9.235 26.677-8.417 6.489.453 11.853 2.13 16.273 4.613 6.302-2.036 13.208-2.888 20.752-2.362 9.66.673 17.786 3.466 24.549 7.881M33.532 147.95c-9.485-.749-18.071 6.099-19.367 15.702-1.332 9.874 5.545 18.977 15.378 20.417l.021.003 11.293 1.719a3.5 3.5 0 0 1 2.48 1.668 26 26 0 0 0 5.068 6.126c5.076 4.52 12.13 7.331 21.659 6.716 7.456-.481 13.163-2.75 17.419-6.301a3.5 3.5 0 0 1 2.766-.774c55.957 8.463 193.766 29.246 281.095 41.913 17.896 2.595 33.673 4.933 46.252 6.511a1206 1206 0 0 0 6.231.764 3.5 3.5 0 0 1 2.227 1.182c5.715 6.59 14.1 10.877 23.555 11.215 18.664.668 32.654-13.931 33.606-30.315a3.5 3.5 0 0 1 3.024-3.265c15.068-2.046 33.287-3.243 52.859-4.318 58.922-3.236 129.084-4.949 170.159-17.781 24.715-7.721 40.288-20.59 45.515-35.719 3.14-9.087 2.801-17.211.189-24.463-3.265-9.069-10.688-17.402-22.943-23.513-6.282-3.132-14.181-5.802-23.363-7.996a3.5 3.5 0 0 1-2.685-3.286l-.617-18.345c-.18-5.333-1.295-9.856-3.112-13.662a3.5 3.5 0 0 1 .651-3.95 18.057 18.057 0 0 0 .309-24.873l-1.634-1.763a3.5 3.5 0 0 1-.846-3.155l.534-2.344a18.06 18.06 0 0 0-8.579-19.644 18.06 18.06 0 0 0-21.301 2.393l-1.763 1.634a3.5 3.5 0 0 1-3.155.845l-2.344-.533a18.06 18.06 0 0 0-19.644 8.578 18.06 18.06 0 0 0 2.174 21.061 3.5 3.5 0 0 1-2.503 5.831c-5.911.179-11.206 1.117-15.909 2.79a3.5 3.5 0 0 1-3.048-.342c-3.868-2.453-8.709-4.059-14.697-4.436-9.456-.594-16.448 2.242-21.481 6.801q-.103.092-.205.187a3.5 3.5 0 0 1-4.584.146c-4.914-3.994-11.597-6.447-20.461-5.985-9.481.495-16.12 4.092-20.61 9.143a26 26 0 0 0-2.646 3.535 3.5 3.5 0 0 1-5.727.305 26 26 0 0 0-3.101-3.319c-3.737-3.366-8.592-5.831-14.79-6.637a3.5 3.5 0 0 1-2.995-4.08q.395-2.23.43-4.618c.098-6.57-1.976-12.343-6.195-17.327-4.198-4.959-10.733-8.643-20.553-8.567h-.047l-5.322.056-.07.001c-15.731.233-27.839 4.522-36.678 11.72a42 42 0 0 0-4.769 4.542 3.501 3.501 0 0 1-6.104-2.343 18.058 18.058 0 0 0-22.755-17.452l-2.321.625a3.5 3.5 0 0 1-3.186-.72l-1.827-1.563a18.055 18.055 0 0 0-21.378-1.55 18.055 18.055 0 0 0-7.797 19.966l.626 2.321a3.5 3.5 0 0 1-.721 3.187l-1.563 1.826a18.05 18.05 0 0 0-4.312 12.708 3.498 3.498 0 0 1-4.408 3.565c-3.238-.875-6.749-1.454-10.547-1.719-8.8-.614-16.941.926-24.448 4.49l-.069.033a3.5 3.5 0 0 1-3.547-.316c-6.111-4.385-13.61-7.114-22.647-7.744-7.133-.498-13.616.393-19.479 2.506a3.5 3.5 0 0 1-3.057-.334c-3.822-2.417-8.595-4.012-14.489-4.423-9.451-.659-16.463 2.13-21.527 6.654a25.8 25.8 0 0 0-4.765 5.67 3.5 3.5 0 0 1-5.302.769 55.6 55.6 0 0 0-6.745-5.127c-8.224-5.33-18.108-8.674-29.758-9.699s-21.966.541-30.995 4.354q-12.115 5.116-20.262 14.967a3.5 3.5 0 0 1-5.503-.138c-4.352-5.835-9.628-10.403-15.75-13.782-8.229-4.541-17.528-6.615-27.956-5.942-7.165.462-13.636 2.25-19.443 5.262-.965.5-2.109.524-3.094.063-4.178-1.955-9.229-2.943-15.282-2.553-9.455.61-16.03 4.312-20.444 9.472-4.283 5.007-6.985 11.983-6.376 21.404l3.85 59.656a3.503 3.503 0 0 1-3.769 3.714" style="fill:#fce7f3"/><path d="M586.279 54.197a32.4 32.4 0 0 1 6.42-3.885 3.5 3.5 0 0 1 2.908 6.367 25.7 25.7 0 0 0-6.807 4.549 3.5 3.5 0 0 1-4.584.146 25.8 25.8 0 0 0-4.357-2.866 3.5 3.5 0 0 1 3.235-6.208 33 33 0 0 1 3.185 1.897M28.89 148.188a3.5 3.5 0 0 1-1.263-6.885 25 25 0 0 1 2.449-.325l-.173-2.683a3.5 3.5 0 0 1 6.985-.451l.413 6.392a3.503 3.503 0 0 1-3.769 3.714 17.9 17.9 0 0 0-4.642.238m6.898-27.388a3.503 3.503 0 0 1-3.267 3.718 3.5 3.5 0 0 1-3.718-3.267l-.825-12.784a3.5 3.5 0 0 1 6.985-.451zm-1.925-29.828a3.5 3.5 0 0 1-3.267 3.718 3.5 3.5 0 0 1-3.718-3.267l-.413-6.392c-.184-2.855-.11-5.524.182-8.015a3.5 3.5 0 0 1 3.884-3.069 3.5 3.5 0 0 1 3.068 3.884c-.246 2.098-.304 4.345-.148 6.749zm6.843-28.774a3.5 3.5 0 0 1-4.948.143 3.5 3.5 0 0 1-.143-4.948c3.546-3.755 8.081-6.83 13.828-8.727a3.501 3.501 0 0 1 2.194 6.647c-4.54 1.499-8.13 3.918-10.931 6.885m28.631-7.963a3.5 3.5 0 0 1-2.748-4.117 3.5 3.5 0 0 1 4.118-2.748 34.6 34.6 0 0 1 6.229 1.856 53 53 0 0 1 3.733-1.615 3.5 3.5 0 0 1 4.529 1.997 3.503 3.503 0 0 1-1.998 4.529 46 46 0 0 0-4.553 2.057c-.965.5-2.109.524-3.094.063a27.2 27.2 0 0 0-6.216-2.022m26.86-3.149a3.5 3.5 0 0 1-3.828-3.138 3.5 3.5 0 0 1 3.139-3.828q1.056-.105 2.131-.174a64 64 0 0 1 9.236.059 3.501 3.501 0 0 1-.563 6.977 57 57 0 0 0-8.222-.05q-.954.061-1.893.154m23.16 2.73a3.5 3.5 0 0 1 2.414-6.57 55.4 55.4 0 0 1 7.657 3.499 58 58 0 0 1 2.629 1.544 3.5 3.5 0 0 1 1.117 4.822 3.5 3.5 0 0 1-4.822 1.117 50 50 0 0 0-2.306-1.354 48.4 48.4 0 0 0-6.689-3.058m19.238 12.956a3.5 3.5 0 0 1 .231-4.945 3.5 3.5 0 0 1 4.944.232q.489.535.965 1.087.548-.574 1.11-1.132a3.5 3.5 0 0 1 4.932 4.967 53 53 0 0 0-3.478 3.813 3.5 3.5 0 0 1-5.503-.138 51 51 0 0 0-3.201-3.884m23.113-8.068a3.5 3.5 0 0 1-4.771-1.317 3.5 3.5 0 0 1 1.317-4.771 63.484 63.484 0 0 1 10.615-4.78 3.5 3.5 0 0 1 4.449 2.17 3.503 3.503 0 0 1-2.171 4.449 56 56 0 0 0-3.586 1.372 56 56 0 0 0-5.853 2.877m22.971-7.188a3.5 3.5 0 0 1-3.837-3.127 3.5 3.5 0 0 1 3.127-3.836 78 78 0 0 1 11.513-.3 3.5 3.5 0 0 1 3.337 3.656 3.5 3.5 0 0 1-3.656 3.337 71 71 0 0 0-10.484.27m24.38 1.609a3.5 3.5 0 0 1-2.615-4.202 3.5 3.5 0 0 1 4.202-2.616 71 71 0 0 1 11.024 3.515 3.501 3.501 0 0 1-2.674 6.469 64 64 0 0 0-9.937-3.166m21.977 9.924a3.5 3.5 0 0 1-.754-4.892 3.5 3.5 0 0 1 4.892-.754q.787.576 1.549 1.173.686-.853 1.414-1.644a3.5 3.5 0 0 1 4.945-.208 3.5 3.5 0 0 1 .208 4.945 25.7 25.7 0 0 0-2.929 3.861 3.5 3.5 0 0 1-5.302.769 54 54 0 0 0-4.023-3.25m22.981-8.393a3.501 3.501 0 0 1-2.258-6.626c3.531-1.203 7.499-1.899 11.95-1.92a3.501 3.501 0 0 1 .033 7c-3.621.017-6.852.567-9.725 1.546m22.79.766a3.501 3.501 0 0 1 2.601-6.499 34 34 0 0 1 4.005 1.913 51 51 0 0 1 4.738-1.28 3.501 3.501 0 0 1 1.496 6.839 43 43 0 0 0-5.448 1.568 3.5 3.5 0 0 1-3.057-.334 26.6 26.6 0 0 0-4.335-2.207m28.033.128a3.5 3.5 0 0 1-3.169-3.803 3.5 3.5 0 0 1 3.803-3.168c4.618.42 8.876 1.334 12.793 2.683a3.5 3.5 0 0 1 2.17 4.449 3.5 3.5 0 0 1-4.448 2.17c-3.414-1.175-7.126-1.965-11.149-2.331m28.164 6.606a3.5 3.5 0 0 1-4.538-1.977 3.5 3.5 0 0 1 1.977-4.538 54 54 0 0 1 12.655-3.283 3.501 3.501 0 0 1 .929 6.938 47 47 0 0 0-11.023 2.86m26.318-2.619a3.5 3.5 0 0 1 1.06-6.919q1.086.166 2.141.367a25 25 0 0 1 5.815-13.096l.362-.424-.145-.537a25 25 0 0 1-.863-6.748 3.5 3.5 0 0 1 7 .064 18 18 0 0 0 .622 4.862l.626 2.321a3.5 3.5 0 0 1-.721 3.187l-1.563 1.826a18.05 18.05 0 0 0-4.312 12.708 3.498 3.498 0 0 1-4.408 3.565 51 51 0 0 0-5.614-1.176m20.035-39.243a3.5 3.5 0 0 1-4.943.247 3.5 3.5 0 0 1-.248-4.943 25.07 25.07 0 0 1 11.4-7.196 3.5 3.5 0 0 1 2.006 6.706 18 18 0 0 0-4.461 2.032 18 18 0 0 0-3.754 3.154m21.01-4.258a3.503 3.503 0 0 1-1.697-4.65 3.5 3.5 0 0 1 4.65-1.697 25 25 0 0 1 5.721 3.683l.423.362.538-.145a25 25 0 0 1 9.769-.653 3.5 3.5 0 0 1 3.015 3.925 3.5 3.5 0 0 1-3.925 3.016 18 18 0 0 0-7.038.471l-2.321.625a3.5 3.5 0 0 1-3.186-.72l-1.827-1.563a18 18 0 0 0-4.122-2.654m32.841 14.845a3.501 3.501 0 0 1 6.468-2.677q.486 1.177.849 2.386.252-.21.506-.417a53 53 0 0 1 2.833-2.152 3.501 3.501 0 0 1 4.043 5.715 45 45 0 0 0-2.456 1.865 42 42 0 0 0-4.769 4.542 3.501 3.501 0 0 1-6.104-2.343 18.1 18.1 0 0 0-1.37-6.919m39.014-6.263a3.503 3.503 0 0 1-3.95-2.984 3.5 3.5 0 0 1 2.984-3.949 87 87 0 0 1 10.77-.803l.099-.001 5.322-.056.066-.001a42 42 0 0 1 6.084.382 3.5 3.5 0 0 1 2.985 3.948 3.5 3.5 0 0 1-3.948 2.986 35 35 0 0 0-5.066-.316h-.047l-5.322.056-.07.001a81 81 0 0 0-9.907.737m32.487 4.469a3.5 3.5 0 0 1-.583-4.915 3.5 3.5 0 0 1 4.916-.583 30.7 30.7 0 0 1 4.421 4.279 34.5 34.5 0 0 1 3.718 5.311 3.5 3.5 0 0 1-6.094 3.445 27.5 27.5 0 0 0-2.966-4.233 23.7 23.7 0 0 0-3.412-3.304m9.61 20.233a3.503 3.503 0 0 1 3.506-3.494 3.5 3.5 0 0 1 3.494 3.506q0 .244-.004.49a37 37 0 0 1-.101 2.257c6.175 1.385 11.159 4.185 15.142 7.773q.445.4.877.819a32 32 0 0 1 1.372-1.544 3.5 3.5 0 0 1 4.948-.142 3.503 3.503 0 0 1 .141 4.948 26.068 26.068 0 0 0-3.195 4.134 3.5 3.5 0 0 1-5.727.305 26 26 0 0 0-3.101-3.319c-3.737-3.366-8.592-5.831-14.79-6.637a3.5 3.5 0 0 1-2.995-4.08 29 29 0 0 0 .433-5.016m41.183 7.436a3.5 3.5 0 0 1-1.997-6.709c2.969-.884 6.254-1.459 9.885-1.648a48 48 0 0 1 2.858-.065 3.5 3.5 0 0 1-.057 7 41 41 0 0 0-2.436.055c-3.031.158-5.774.629-8.253 1.367m62.113-1.372a3.5 3.5 0 0 1-2.46-4.295 3.5 3.5 0 0 1 4.295-2.46c2.966.806 5.63 1.914 8.019 3.261 3.197-1.017 6.623-1.756 10.285-2.2l-.113-.225a3.5 3.5 0 0 1 6.276-3.101 18 18 0 0 0 2.726 4.033 3.5 3.5 0 0 1-2.503 5.831c-5.911.179-11.206 1.117-15.909 2.79a3.5 3.5 0 0 1-3.048-.342c-2.196-1.393-4.707-2.515-7.568-3.292m25.051-21.7a3.5 3.5 0 0 1-6.761-1.814 25 25 0 0 1 2.502-6.034 25 25 0 0 1 4.296-5.499 3.5 3.5 0 0 1 4.949.087 3.5 3.5 0 0 1-.088 4.949 18 18 0 0 0-3.095 3.963 18 18 0 0 0-1.803 4.348m16.598-13.358a3.5 3.5 0 0 1-3.66-3.333 3.5 3.5 0 0 1 3.333-3.659 25 25 0 0 1 6.729.599l.543.123.409-.378a25 25 0 0 1 5.57-3.905 3.5 3.5 0 0 1 3.202 6.225 18 18 0 0 0-4.015 2.814l-1.763 1.634a3.5 3.5 0 0 1-3.155.845l-2.344-.533a18 18 0 0 0-4.849-.432m28.874-5.76a3.5 3.5 0 0 1 1.74-6.78 25 25 0 0 1 6.298 2.571 25 25 0 0 1 5.377 4.169 3.5 3.5 0 0 1-5.002 4.897 18 18 0 0 0-3.875-3.004 18 18 0 0 0-4.538-1.853m13.547 16.613a3.5 3.5 0 0 1 3.326-3.666 3.503 3.503 0 0 1 3.666 3.326 25 25 0 0 1-.597 6.777l-.123.543.378.409a25 25 0 0 1 4.484 6.774 3.503 3.503 0 0 1-1.762 4.626 3.5 3.5 0 0 1-4.625-1.762 18 18 0 0 0-3.231-4.881l-1.634-1.763a3.5 3.5 0 0 1-.846-3.155l.534-2.344a18 18 0 0 0 .43-4.884m4.558 32.217a3.5 3.5 0 0 1 6.312 3.026 25.062 25.062 0 0 1-3.056 4.859c1.641 4.109 2.667 8.847 2.85 14.294l.528 15.699q1.39.355 2.74.724a3.5 3.5 0 0 1 2.452 4.3 3.5 3.5 0 0 1-4.3 2.452q-2.486-.68-5.114-1.309a3.5 3.5 0 0 1-2.685-3.286l-.617-18.345c-.18-5.333-1.295-9.856-3.112-13.662a3.5 3.5 0 0 1 .651-3.95 18 18 0 0 0 2.701-3.572q.35-.607.65-1.23m20.753 49.775a3.503 3.503 0 0 1-1.911-4.566 3.5 3.5 0 0 1 4.566-1.911 82 82 0 0 1 5.491 2.479 71 71 0 0 1 4.634 2.526 3.501 3.501 0 0 1-3.582 6.015 64 64 0 0 0-4.176-2.277 75 75 0 0 0-5.022-2.266m19.756 12.798a3.501 3.501 0 0 1 5.048-4.849c2.842 2.958 5.151 6.095 6.962 9.346a3.503 3.503 0 0 1-1.354 4.761 3.5 3.5 0 0 1-4.761-1.354c-1.532-2.75-3.49-5.401-5.895-7.904m9.985 20.229a3.503 3.503 0 0 1 3.011-3.929 3.503 3.503 0 0 1 3.929 3.011c.494 3.735.486 7.642-.128 11.729a3.5 3.5 0 0 1-6.922-1.039c.511-3.404.522-6.66.11-9.772m-4.159 22.296a3.501 3.501 0 0 1 6.207 3.236c-1.721 3.302-3.894 6.497-6.515 9.551a3.5 3.5 0 0 1-5.312-4.559c2.26-2.632 4.137-5.382 5.62-8.228m-15.632 17.332a3.5 3.5 0 0 1 4.11 5.666c-2.9 2.104-6.078 4.096-9.533 5.96a3.5 3.5 0 0 1-4.742-1.418 3.5 3.5 0 0 1 1.419-4.742c3.168-1.71 6.086-3.536 8.746-5.466m-21.413 11.161a3.501 3.501 0 0 1 2.445 6.559 129 129 0 0 1-6.634 2.268q-1.902.594-3.884 1.158a3.5 3.5 0 0 1-4.324-2.408 3.5 3.5 0 0 1 2.408-4.325q1.895-.538 3.713-1.107a122 122 0 0 0 6.276-2.145m-23.72 6.613a3.5 3.5 0 0 1 4.147 2.702 3.5 3.5 0 0 1-2.702 4.147 300 300 0 0 1-10.72 2.049 3.5 3.5 0 0 1-4.045-2.852 3.5 3.5 0 0 1 2.851-4.046 293 293 0 0 0 10.469-2m-24.559 4.166a3.5 3.5 0 0 1 3.941 2.995 3.5 3.5 0 0 1-2.995 3.94 531 531 0 0 1-10.772 1.354 3.501 3.501 0 0 1-.805-6.954c3.607-.417 7.154-.861 10.631-1.335m-24.861 2.823a3.5 3.5 0 0 1 .658 6.969c-3.557.336-7.156.652-10.788.95a3.501 3.501 0 0 1-.573-6.977c3.603-.295 7.174-.609 10.703-.942m-24.999 2.021a3.501 3.501 0 0 1 .485 6.983c-3.579.249-7.178.484-10.788.709a3.5 3.5 0 0 1-3.711-3.276 3.5 3.5 0 0 1 3.276-3.71c3.593-.224 7.176-.459 10.738-.706m-25.072 1.546a3.5 3.5 0 0 1 .387 6.989c-3.595.199-7.192.391-10.782.578a3.5 3.5 0 0 1-.364-6.99c3.582-.187 7.171-.379 10.759-.577m-25.116 1.308a3.5 3.5 0 0 1 .351 6.991q-5.417.272-10.771.542a3.5 3.5 0 0 1-.354-6.991c3.569-.181 7.163-.361 10.774-.542m-25.148 1.288a3.501 3.501 0 0 1 .377 6.99 2117 2117 0 0 0-10.754.601 3.5 3.5 0 0 1-3.698-3.29 3.5 3.5 0 0 1 3.29-3.698 2280 2280 0 0 1 10.785-.603m-25.179 1.52a3.5 3.5 0 0 1 3.737 3.246 3.503 3.503 0 0 1-3.247 3.737c-3.656.256-7.228.53-10.702.825a3.5 3.5 0 0 1-.594-6.974c3.508-.299 7.115-.575 10.806-.834m-25.228 2.275a3.5 3.5 0 0 1 3.885 3.067 3.5 3.5 0 0 1-3.067 3.885q-1.287.151-2.547.31a38 38 0 0 1-.695 3.717 3.501 3.501 0 0 1-6.809-1.623c.421-1.767.691-3.576.797-5.407a3.5 3.5 0 0 1 3.024-3.265q2.644-.359 5.412-.684m-15.696 22.378a3.5 3.5 0 0 1 5.424 4.423 39.6 39.6 0 0 1-10.006 8.753 3.5 3.5 0 0 1-3.654-5.97 32.6 32.6 0 0 0 8.236-7.206m-22.009 11.766a3.503 3.503 0 0 1 3.808 3.163 3.5 3.5 0 0 1-3.163 3.807 41 41 0 0 1-5.233.146 40 40 0 0 1-8.003-1.097 3.5 3.5 0 0 1 1.646-6.803 33 33 0 0 0 6.608.904 34 34 0 0 0 4.337-.12m-23.958-7.267a3.5 3.5 0 0 1 .486 4.926 3.5 3.5 0 0 1-4.926.486 39.5 39.5 0 0 1-3.862-3.629 1177 1177 0 0 1-4.228-.52 3.5 3.5 0 0 1-3.04-3.906 3.5 3.5 0 0 1 3.906-3.04q2.869.357 5.503.673a3.5 3.5 0 0 1 2.227 1.182 32.4 32.4 0 0 0 3.934 3.828m-26.311-7.63a3.5 3.5 0 0 1 2.984 3.949 3.5 3.5 0 0 1-3.949 2.984c-3.517-.49-7.197-1.013-11.025-1.564a3.503 3.503 0 0 1-2.967-3.963 3.5 3.5 0 0 1 3.963-2.966c3.817.549 7.487 1.071 10.994 1.56m-25.661-3.686a3.501 3.501 0 0 1-1.008 6.927l-6.668-.969-4.336-.629a3.501 3.501 0 0 1 1.007-6.927l4.333.629q3.389.491 6.672.969m-25.673-3.737a3.503 3.503 0 0 1 2.957 3.97 3.5 3.5 0 0 1-3.969 2.957l-11.005-1.611a3.501 3.501 0 0 1 1.016-6.926c3.723.546 7.393 1.083 11.001 1.61m-25.668-3.766a3.5 3.5 0 0 1-1.02 6.925q-5.446-.801-11.001-1.622a3.5 3.5 0 0 1-2.952-3.973 3.503 3.503 0 0 1 3.974-2.952q5.553.82 10.999 1.622m-25.664-3.79a3.501 3.501 0 0 1-1.025 6.925l-11.001-1.63a3.501 3.501 0 0 1 1.027-6.925q5.529.821 10.999 1.63m-25.663-3.807a3.5 3.5 0 0 1 2.947 3.977 3.5 3.5 0 0 1-3.976 2.947l-11-1.637a3.5 3.5 0 0 1 1.031-6.923zm-25.662-3.822a3.5 3.5 0 0 1 2.946 3.978 3.5 3.5 0 0 1-3.978 2.946l-10.999-1.642a3.5 3.5 0 0 1-2.945-3.978 3.503 3.503 0 0 1 3.979-2.945zm-25.659-3.833a3.5 3.5 0 0 1 2.943 3.98 3.5 3.5 0 0 1-3.979 2.943l-10.998-1.646a3.5 3.5 0 0 1-2.943-3.98 3.5 3.5 0 0 1 3.98-2.943zm-25.659-3.843a3.501 3.501 0 0 1-1.038 6.923l-10.997-1.65a3.503 3.503 0 0 1-2.942-3.981 3.503 3.503 0 0 1 3.981-2.942zm-25.657-3.852a3.503 3.503 0 0 1 2.941 3.982 3.5 3.5 0 0 1-3.981 2.941l-10.997-1.654a3.501 3.501 0 0 1 1.042-6.922zm-25.656-3.859a3.5 3.5 0 0 1 2.94 3.982 3.503 3.503 0 0 1-3.982 2.94l-10.996-1.657a3.501 3.501 0 0 1 1.043-6.922zm-25.655-3.867a3.5 3.5 0 0 1-1.045 6.921l-10.995-1.659a3.501 3.501 0 0 1 1.045-6.922zm-25.654-3.875a3.503 3.503 0 0 1 2.938 3.984 3.5 3.5 0 0 1-3.984 2.938l-3.995-.605a31.7 31.7 0 0 1-4.358 2.746 3.501 3.501 0 0 1-3.244-6.203 24.7 24.7 0 0 0 4.38-2.917 3.5 3.5 0 0 1 2.766-.774zm-26.624 6.294a3.5 3.5 0 0 1 .293 6.994c-4.884.204-9.217-.364-13.053-1.507a3.503 3.503 0 0 1-2.355-4.354 3.503 3.503 0 0 1 4.354-2.355c3.162.943 6.736 1.391 10.761 1.222m-22.624-8.644a3.503 3.503 0 0 1-.214 4.946 3.5 3.5 0 0 1-4.945-.215 33 33 0 0 1-3.113-3.967l-3.931-.598a3.5 3.5 0 0 1-2.933-3.987 3.5 3.5 0 0 1 3.987-2.933l5.508.838a3.5 3.5 0 0 1 2.48 1.668 26 26 0 0 0 3.161 4.248m-23.987-10.228a3.5 3.5 0 0 1 1.096 4.827 3.5 3.5 0 0 1-4.827 1.096 25.3 25.3 0 0 1-8.744-9.343 3.5 3.5 0 0 1 6.154-3.335 18.3 18.3 0 0 0 6.321 6.755m-8.183-18.828a3.5 3.5 0 0 1-6.875-1.315 25.07 25.07 0 0 1 5.531-11.549 3.501 3.501 0 0 1 5.335 4.532 18.1 18.1 0 0 0-3.991 8.332M142.917 163.589a3.5 3.5 0 0 1 1.165-6.902q5.17.872 10.339 1.714a3.5 3.5 0 0 1 2.892 4.017 3.5 3.5 0 0 1-4.017 2.892q-5.19-.845-10.379-1.721m24.232 3.923a3.503 3.503 0 0 1-2.923-3.995 3.503 3.503 0 0 1 3.995-2.923q5.18.803 10.36 1.574a3.503 3.503 0 0 1 2.947 3.978 3.5 3.5 0 0 1-3.978 2.946 1777 1777 0 0 1-10.401-1.58m24.284 3.591a3.5 3.5 0 0 1-2.978-3.954 3.5 3.5 0 0 1 3.954-2.978q5.19.731 10.381 1.43a3.5 3.5 0 0 1-.934 6.937 1683 1683 0 0 1-10.423-1.435m24.333 3.251a3.5 3.5 0 0 1-3.034-3.911 3.5 3.5 0 0 1 3.911-3.034q5.2.657 10.4 1.281a3.5 3.5 0 0 1 3.058 3.892 3.503 3.503 0 0 1-3.893 3.058q-5.22-.627-10.442-1.286m24.379 2.9a3.5 3.5 0 0 1-3.091-3.866 3.5 3.5 0 0 1 3.867-3.09q5.208.58 10.417 1.129a3.5 3.5 0 0 1-.732 6.961 1614 1614 0 0 1-10.461-1.134m24.42 2.542a3.5 3.5 0 0 1-3.148-3.82 3.5 3.5 0 0 1 3.82-3.148q5.216.505 10.433.973a3.5 3.5 0 0 1 3.172 3.8 3.5 3.5 0 0 1-3.8 3.172q-5.239-.471-10.477-.977m24.457 2.174a3.503 3.503 0 0 1-3.206-3.772 3.5 3.5 0 0 1 3.772-3.205q5.223.423 10.445.813a3.5 3.5 0 0 1 3.231 3.75 3.503 3.503 0 0 1-3.751 3.231q-5.245-.391-10.491-.817m24.488 1.797a3.5 3.5 0 0 1 .458-6.985q5.229.343 10.456.649a3.5 3.5 0 0 1-.41 6.988q-5.251-.308-10.504-.652m24.515 1.411a3.5 3.5 0 0 1 .347-6.991q5.232.26 10.464.482a3.503 3.503 0 0 1 3.348 3.646 3.5 3.5 0 0 1-3.646 3.348q-5.257-.224-10.513-.485m24.535 1.018a3.501 3.501 0 0 1 .234-6.996q5.235.175 10.47.312a3.5 3.5 0 0 1 3.407 3.591 3.5 3.5 0 0 1-3.591 3.407q-5.26-.138-10.52-.314m24.55.616a3.5 3.5 0 0 1 .118-6.999q5.236.088 10.474.139a3.503 3.503 0 0 1 3.466 3.534 3.503 3.503 0 0 1-3.534 3.466q-5.262-.051-10.524-.14m24.558.208a3.5 3.5 0 0 1-3.5-3.5c0-1.932 1.568-3.5 3.5-3.5q5.237 0 10.474-.038a3.5 3.5 0 0 1 3.526 3.474 3.5 3.5 0 0 1-3.475 3.526q-5.262.038-10.525.038m24.558-.209a3.5 3.5 0 0 1-3.559-3.44 3.5 3.5 0 0 1 3.44-3.559q5.236-.09 10.471-.218a3.501 3.501 0 0 1 .172 6.998q-5.262.129-10.524.219m24.553-.632a3.5 3.5 0 0 1-3.619-3.377 3.503 3.503 0 0 1 3.378-3.619 1357 1357 0 0 0 10.466-.4 3.5 3.5 0 0 1 .293 6.994q-5.259.22-10.518.402m24.538-1.061a3.5 3.5 0 0 1-.364-6.99q5.229-.272 10.457-.585a3.503 3.503 0 0 1 3.703 3.286 3.5 3.5 0 0 1-3.286 3.702q-5.255.314-10.51.587m24.517-1.495a3.5 3.5 0 0 1-3.736-3.247 3.5 3.5 0 0 1 3.247-3.736q5.222-.366 10.445-.771a3.5 3.5 0 0 1 .542 6.979q-5.25.408-10.498.775m24.486-1.935a3.5 3.5 0 0 1-3.794-3.179 3.503 3.503 0 0 1 3.18-3.794q5.214-.459 10.428-.96a3.503 3.503 0 0 1 3.819 3.15 3.5 3.5 0 0 1-3.15 3.818q-5.242.504-10.483.965m24.448-2.378a3.5 3.5 0 0 1-3.851-3.11 3.5 3.5 0 0 1 3.11-3.851q5.205-.554 10.409-1.15a3.5 3.5 0 0 1 3.875 3.079 3.5 3.5 0 0 1-3.079 3.876q-5.232.598-10.464 1.156m24.401-2.826a3.5 3.5 0 0 1-.869-6.946q5.193-.65 10.386-1.341a3.5 3.5 0 0 1 .924 6.939q-5.22.695-10.441 1.348m24.345-3.276a3.5 3.5 0 0 1-.998-6.928q5.18-.746 10.359-1.534a3.5 3.5 0 0 1 1.054 6.92q-5.207.793-10.415 1.542m24.281-3.727a3.501 3.501 0 0 1-1.127-6.909q5.164-.843 10.328-1.727a3.5 3.5 0 0 1 1.182 6.899q-5.192.89-10.383 1.737" style="fill:#fbcfe8"/><path d="M435.986 217.063c1.922-4.173 6.089-7.747 12.381-10.592 17.023-7.696 50.758-10.774 89.449-12.898 56.937-3.127 124.78-4.353 164.471-16.753 15.79-4.933 27.052-11.375 30.392-21.041 2.322-6.721-.002-11.971-5.619-16.13-4.367-3.234-10.517-5.839-18.019-8.008-4.587-1.326-9.661-2.481-15.14-3.486l-.234-6.952c12.596 2.204 23.222 5.128 30.988 9.001 7.682 3.83 12.735 8.651 14.782 14.336 1.44 3.998 1.471 8.475-.26 13.484-3.893 11.269-16.432 19.608-34.84 25.359-40.098 12.526-108.623 13.896-166.144 17.055-32.376 1.778-61.215 4.11-79.259 9.483-5.599 1.668-10.103 3.598-13.22 5.969a15 15 0 0 0-1.785 1.577c-.233.245-5.264.009-7.943-.404m5.826 4.076a6.6 6.6 0 0 0-.171 1.243 3.44 3.44 0 0 1-3.577 3.293 3.44 3.44 0 0 1-3.292-3.577q.04-.957.21-1.881zm226.957-96.382c-13.992-1.367-29.361-2.176-45.285-2.654l.398-6.316q.016-.26.037-.515c15.643.492 30.766 1.308 44.619 2.639zm-70.803-3.165c-5.684-.066-11.382-.107-17.061-.131a3.44 3.44 0 0 1-3.423-3.452 3.44 3.44 0 0 1 3.452-3.423c5.813.025 11.646.069 17.464.142zM80.222 107.981c8.403-.424 18.15-.876 23.12-.963a3.44 3.44 0 0 1 3.497 3.377 3.44 3.44 0 0 1-3.377 3.497c-4.999.088-14.866.548-23.283.974q-.236-3.732.043-6.885M396.806 114.103c-4.725.183-9.635.332-14.719.45q.228-3.613.128-6.85c4.899-.117 9.634-.261 14.196-.439zm-142.665.04c-3.875-.049-9.781-.096-13.716-.143a50.5 50.5 0 0 0-.264-6.875c4.187.051 10.341.103 14.459.155zm102.86.762c-8.448.053-17.254.054-26.382.017q.359-3.835 1.409-6.844c8.63.034 16.966.032 24.975-.018q.287 2.703.044 6.179zm-51.446-.16c-8.57-.082-17.369-.183-26.372-.292l.15-2.148q.176-2.522.635-4.705c8.868.11 17.536.211 25.979.293a43 43 0 0 1-.107 2.775zm-90.291-1.022c-7.193-.071-14.466-.134-21.811-.185a3.438 3.438 0 0 1 .048-6.875c7.281.051 14.493.113 21.625.184q.358 3.132.138 6.876M455.896 107.348c-4.176 1.178-9.016 2.193-14.479 3.046-5.832.911-12.403 1.654-19.65 2.255l-.396-6.854c6.987-.588 13.335-1.311 18.985-2.194 5.323-.831 10.005-1.796 13.987-2.933.427 2.214.981 4.393 1.537 6.614zM458.905 73.549q-.627-.56-1.27-1.07c-3.359-2.656-6.979-4.449-10.063-2.572-.965.587-2.305 1.43-2.966 3.057a3.44 3.44 0 0 1-4.48 1.886 3.44 3.44 0 0 1-1.893-4.478c1.33-3.277 3.822-5.157 5.765-6.339 5.393-3.281 12.03-1.591 17.902 3.054q.543.43 1.076.889c-1.606 1.692-2.943 3.565-4.071 5.573" style="fill:#f472b6"/><path d="M55.584 171.34a62745 62745 0 0 1-23.628-3.594 1.68 1.68 0 0 1 .449-3.327s8.432.991 22.907 2.699l-5.396-83.6q-.81-12.56 11.418-13.348 12.393-.8 13.203 11.759l.032.495q3.076-6.337 9.616-10.41t14.968-4.617q10.575-.682 18.92 3.923t13.415 13.736q5.069 9.132 5.911 22.185.103 1.595.136 3.14c-8.048.066-16.347.166-25.163.307a59 59 0 0 0-.089-1.826q-.779-12.062-6.104-17.443T92.922 86.55q-8.097.522-12.686 6.543t-3.811 18.083q.789 12.228 6.12 17.692 5.33 5.463 13.427 4.941 7.932-.512 12.516-6.615 2.772-3.692 3.579-9.624a3106 3106 0 0 1 25.247-.311q-.627 6.993-2.92 12.826-3.849 9.79-11.527 15.512-7.679 5.722-18.254 6.405-8.097.522-15.013-2.516t-10.925-8.587l1.888 29.261c44.322 5.253 199.682 23.713 294.911 35.602 17.821 2.225 33.546 4.138 46.007 5.938 19.081 2.757 30.547 4.886 30.547 4.886a6.096 6.096 0 0 1 5.224 6.853 6.097 6.097 0 0 1-6.854 5.224s-1.686-.143-4.832-.453a8.5 8.5 0 0 1-.166-2.069 6.65 6.65 0 0 1 .729-2.761l.001-.003a3.44 3.44 0 0 0-2.45-5.238l-53.329-7.196a3.44 3.44 0 0 0-3.867 2.947 3.44 3.44 0 0 0 2.947 3.867l49.239 6.644a14 14 0 0 0-.139 1.455 16 16 0 0 0 .017 1.63c-4.959-.533-11.343-1.26-18.899-2.208-12.493-1.567-28.163-3.89-45.936-6.468-111.667-16.198-305.896-45.668-305.896-45.668a2.232 2.232 0 0 1 .596-4.421l3.622.428a4.3 4.3 0 0 0-3.92-2.534 4.3 4.3 0 0 0-4.297 4.297 4.3 4.3 0 0 0 3.128 4.135l12.137 3.594q-2.69 4.717-10.082 5.194-12.558.811-13.379-11.913z" style="fill:#0a0a0a"/><path d="M150.298 110.297q.04-2.01.224-4.099 1.132-12.866 7.245-21.886 6.112-9.02 16.212-13.285 10.1-4.264 23.131-3.117 13.03 1.146 22.23 7.109 9.2 5.962 13.726 15.918 4.527 9.957 3.394 22.823-1.146 13.03-7.342 22.043t-16.302 13.36-23.137 3.2q-13.031-1.146-22.224-7.191t-13.636-15.994q-2.47-5.527-3.212-12.007c8.32-.027 16.549-.021 25.007.009q.675 5.904 3.347 9.639 4.44 6.209 12.358 6.905t13.456-4.634q5.54-5.33 6.613-17.536 1.06-12.042-3.471-18.175-4.53-6.134-12.447-6.83-7.918-.697-13.367 4.559-5.449 5.255-6.509 17.296a55 55 0 0 0-.135 1.9 3641 3641 0 0 0-25.161-.007" style="fill:#0a0a0a"/><path d="M259.983 153.603q-12.555-.875-11.667-13.594l4.09-58.641q.876-12.554 13.099-11.702t11.348 13.407l-.034.496q4.071-6.024 10.679-9.132 6.607-3.108 15.032-2.52 8.59.598 14.353 4.819 5.764 4.22 8.362 12.202 4.306-7.003 11.774-10.549t16.222-2.935q13.876.968 20.067 9.782 6.19 8.814 4.981 26.158l-2.616 37.497q-.426 6.112-3.877 9.191-3.452 3.08-9.399 2.664-12.554-.875-11.666-13.594l2.557-36.671q.565-8.094-1.736-11.99-2.302-3.895-8.413-4.321-7.104-.496-11.413 4.183-4.311 4.68-4.944 13.765l-2.316 33.202q-.887 12.719-13.276 11.855-5.946-.415-9.02-3.949t-2.647-9.646l2.558-36.671q.564-8.094-1.819-11.995t-8.331-4.316q-7.102-.495-11.413 4.184-4.31 4.678-4.943 13.764l-2.316 33.202q-.888 12.72-13.276 11.855" style="fill:#0a0a0a;fill-rule:nonzero"/><path d="M408.371 157.402q-6.117.353-9.545-3.015t-3.802-9.815l-3.266-56.536q-.793-13.72 11.771-14.447 5.95-.344 9.38 3.024 3.429 3.368 3.811 9.981l3.266 56.536q.373 6.447-2.563 10.183t-9.052 4.089M391.246 32.814a1.558 1.558 0 0 1 2.515-1.588l9.844 8.424 12.511-3.37a1.557 1.557 0 0 1 1.587 2.515l-8.424 9.844 3.371 12.51a1.558 1.558 0 0 1-2.515 1.588l-9.844-8.425-12.511 3.371a1.557 1.557 0 0 1-1.588-2.515l8.425-9.844zM467.106 104.121l-3.384 40.717q-1.056 12.706-13.433 11.677-6.105-.507-9.049-4.075t-2.436-9.673l4.252-51.156-5.941-.494q-9.736-.809-8.967-10.05.782-9.405 10.517-8.597l5.941.494q1.729-16.804 11.264-24.569 9.534-7.764 26.503-8.015l5.322-.057q5.487-.042 7.832 2.728t2.291 6.422-2.192 6.381q-2.137 2.73-5.796 2.758l-2.323-.027q-8.967-.08-13.057 3.152t-4.693 10.493l-.233 2.805 11.716.974q9.735.81 8.954 10.215-.768 9.242-10.504 8.432l-11.716-.974-.259 3.117c-4.626-2.389-8.489-4.841-11.581-7.28-3.416-2.695-15.266-9.879-14.154-6.774 1.353 3.78 4.597 7.991 9.895 12.171 3.9 3.077 8.982 6.196 15.231 9.205" style="fill:#0a0a0a"/><path d="m467.106 104.121-3.384 40.717q-1.056 12.706-13.433 11.677-6.105-.507-9.049-4.075t-2.436-9.673l4.252-51.156-5.941-.494q-9.736-.809-8.967-10.05.782-9.405 10.517-8.597l5.941.494q1.729-16.804 11.264-24.569 9.534-7.764 26.503-8.015l5.322-.057q5.487-.042 7.832 2.728t2.291 6.422-2.192 6.381q-2.137 2.73-5.796 2.758l-2.323-.027q-8.967-.08-13.057 3.152t-4.693 10.493l-.233 2.805 11.716.974q9.735.81 8.954 10.215-.768 9.242-10.504 8.432l-11.716-.974-.259 3.117c-4.626-2.389-8.489-4.841-11.581-7.28-3.416-2.695-15.266-9.879-14.154-6.774 1.353 3.78 4.597 7.991 9.895 12.171 3.9 3.077 8.982 6.196 15.231 9.205M500.379 108.719l-1.087-20.842q-.656-12.567 11.746-13.214 12.567-.656 13.223 11.911l1.427 27.339c-9.231-1.457-17.671-3.217-25.309-5.194m54.166 8.483-1.676-32.121q-.656-12.567 11.746-13.214 12.567-.656 13.223 11.911l1.802 34.519a429 429 0 0 1-25.095-1.095m25.454 7.976.903 17.304q.664 12.732-11.407 13.362-5.953.31-9.268-2.832-3.314-3.144-3.625-9.097-7.43 13.322-23.304 14.15-15.544.811-23.351-7.404-7.808-8.214-8.705-25.412l-.492-9.419c7.692 1.924 16.128 3.635 25.302 5.052l.194 3.725q.751 14.387 13.153 13.74 7.11-.372 11.395-5.652 2.93-3.612 3.654-8.62c8.091.596 16.61.976 25.551 1.103" style="fill:#0a0a0a"/><path d="M604.829 154.701q-12.891-.81-12.09-13.536l3.691-58.667q.79-12.56 13.02-11.79 12.228.77 11.439 13.329l-.188 2.975q6.875-14.334 25.622-14.316 4.153-.07 6.233 2.466t1.902 8.001q.008 5.144-2.575 7.967-2.583 2.825-8.244 3.132l-3.822.091q-18.623.653-19.694 17.675l-1.934 30.739q-.8 12.725-13.36 11.934" style="fill:#0a0a0a;fill-rule:nonzero"/><path d="M678.812 156.952q-6.124.206-9.471-3.244-3.346-3.448-3.564-9.903l-1.904-56.599q-.462-13.736 12.115-14.159 5.957-.201 9.305 3.249t3.569 10.069l1.905 56.599q.218 6.454-2.808 10.118-3.024 3.664-9.147 3.87M682.59 30.915a1.557 1.557 0 0 1 2.576 1.487l-2.875 12.634 8.807 9.504a1.557 1.557 0 0 1-1.488 2.576l-12.633-2.875-9.504 8.807a1.558 1.558 0 0 1-2.576-1.487l2.874-12.634-8.806-9.504a1.556 1.556 0 0 1 1.487-2.576l12.634 2.875z" style="fill:#0a0a0a"/><path d="M103.462 113.892a3.438 3.438 0 0 1-.12-6.874c34.051-.597 59.99-.578 92.159-.355a3.44 3.44 0 0 1 3.414 3.461 3.44 3.44 0 0 1-3.462 3.414c-32.11-.223-58.001-.242-91.991.354M438.241 70.353l6.365 2.611c-.61 1.479-.292 3.162.644 4.968 1.299 2.507 3.709 5.133 7.125 7.828 17.819 14.059 61.273 28.543 128.559 28.826l-.029 6.875c-69.559-.292-114.368-15.769-132.789-30.303-5.298-4.181-8.542-8.392-9.895-12.172-1.111-3.105-1.059-6.019.02-8.633M434.772 222.098l6.869.284c-.205 4.958 3.845 8.891 8.804 9.069 5.665.203 9.998-4.502 9.399-9.543-.443-3.72-3.528-7.303-9.854-9.71l2.445-6.426c9.565 3.639 13.567 9.7 14.236 15.324 1.066 8.97-6.391 17.587-16.472 17.226-8.783-.315-15.791-7.443-15.427-16.224" style="fill:#f472b6"/></svg>