<svg xmlns="http://www.w3.org/2000/svg" viewBox="0 0 710 208">
	<path
		d="M405.484 186.562c1.922-4.173 6.089-7.746 12.381-10.591 17.023-7.696 50.758-10.774 89.449-12.899 56.937-3.126 124.78-4.353 164.471-16.752 15.79-4.933 27.052-11.375 30.392-21.041 2.322-6.721-.002-11.972-5.619-16.131-4.367-3.233-10.517-5.838-18.019-8.007-4.587-1.326-9.661-2.481-15.14-3.486l-.234-6.953c12.596 2.205 23.222 5.129 30.988 9.001 7.682 3.83 12.735 8.652 14.782 14.337 1.44 3.998 1.471 8.474-.26 13.484-3.894 11.268-16.432 19.608-34.84 25.358-40.098 12.527-108.623 13.897-166.144 17.055-32.376 1.778-61.215 4.11-79.259 9.484-5.599 1.667-10.103 3.598-13.22 5.968a15 15 0 0 0-1.785 1.578c-.233.244-5.264.009-7.943-.405m5.826 4.076a6.6 6.6 0 0 0-.171 1.244 3.438 3.438 0 0 1-6.869-.285 13.5 13.5 0 0 1 .21-1.88zm226.957-96.382c-13.992-1.366-29.361-2.176-45.285-2.653l.398-6.316q.016-.26.037-.516c15.643.493 30.766 1.308 44.619 2.64zm-70.803-3.164a2259 2259 0 0 0-17.061-.131 3.44 3.44 0 0 1-3.423-3.452 3.44 3.44 0 0 1 3.452-3.423c5.813.024 11.646.069 17.464.142zM49.72 77.481c8.403-.424 18.15-.876 23.12-.963a3.44 3.44 0 0 1 3.497 3.377 3.44 3.44 0 0 1-3.377 3.497c-4.999.088-14.866.548-23.283.974q-.236-3.732.043-6.885m316.584 6.122c-4.725.183-9.635.331-14.719.45q.227-3.614.128-6.851c4.899-.116 9.634-.261 14.196-.438zm-142.665.039c-3.875-.048-9.781-.096-13.716-.143a50.5 50.5 0 0 0-.264-6.874c4.187.051 10.34.102 14.459.154zm102.86.763c-8.448.053-17.254.054-26.382.016q.359-3.835 1.409-6.843c8.63.033 16.966.032 24.975-.018q.287 2.702.044 6.179zm-51.446-.161c-8.57-.081-17.369-.182-26.372-.291l.15-2.148q.177-2.523.635-4.705c8.868.109 17.536.21 25.979.292q-.006 1.32-.107 2.776zm-90.291-1.022q-10.791-.106-21.811-.184a3.438 3.438 0 0 1 .048-6.875c7.281.05 14.493.113 21.625.184q.358 3.132.138 6.875m240.632-6.374c-4.176 1.178-9.016 2.192-14.479 3.046-5.832.911-12.403 1.654-19.65 2.255l-.396-6.854c6.987-.588 13.335-1.311 18.985-2.194 5.323-.832 10.005-1.797 13.987-2.933.427 2.214.981 4.393 1.537 6.614zm3.009-33.799a28 28 0 0 0-1.27-1.07c-3.359-2.657-6.979-4.449-10.063-2.573-.965.587-2.305 1.43-2.966 3.058a3.44 3.44 0 0 1-6.373-2.592c1.33-3.277 3.822-5.157 5.765-6.339 5.393-3.282 12.03-1.591 17.902 3.054q.543.43 1.076.889c-1.606 1.691-2.943 3.565-4.071 5.573"
		style="fill:#f472b6" />
	<g class="contrastFill">
		<path
			d="M25.082 140.84a62745 62745 0 0 1-23.628-3.594 1.68 1.68 0 0 1 .449-3.327s8.432.99 22.907 2.698l-5.396-83.6q-.81-12.558 11.418-13.347 12.393-.8 13.203 11.758l.032.496q3.076-6.337 9.616-10.411 6.54-4.072 14.968-4.616 10.575-.682 18.92 3.923t13.415 13.736 5.911 22.185q.103 1.595.136 3.14c-8.048.066-16.347.166-25.163.307a59 59 0 0 0-.089-1.826q-.779-12.062-6.104-17.444-5.325-5.38-13.257-4.869-8.097.523-12.686 6.544-4.59 6.02-3.811 18.083.789 12.228 6.12 17.692 5.33 5.463 13.427 4.941 7.932-.513 12.516-6.616 2.772-3.691 3.579-9.624c8.851-.143 17.177-.244 25.247-.311q-.628 6.993-2.92 12.827-3.849 9.789-11.527 15.511-7.679 5.722-18.254 6.405-8.097.523-15.013-2.515t-10.925-8.587l1.888 29.26c44.322 5.254 199.682 23.714 294.911 35.603 17.821 2.224 33.546 4.137 46.007 5.938 19.081 2.756 30.547 4.885 30.547 4.885a6.097 6.097 0 0 1 5.224 6.854 6.097 6.097 0 0 1-6.854 5.224s-1.686-.143-4.832-.453a8.5 8.5 0 0 1-.166-2.069 6.65 6.65 0 0 1 .729-2.761l.001-.003a3.439 3.439 0 0 0-2.45-5.238l-53.329-7.196a3.44 3.44 0 0 0-3.867 2.947 3.44 3.44 0 0 0 2.947 3.866l49.239 6.644q-.109.719-.139 1.456-.034.826.017 1.629c-4.959-.533-11.343-1.26-18.899-2.207-12.493-1.567-28.163-3.891-45.936-6.469-111.667-16.197-305.896-45.668-305.896-45.668a2.23 2.23 0 0 1 .596-4.42l3.622.428a4.3 4.3 0 0 0-3.92-2.535 4.3 4.3 0 0 0-4.297 4.298 4.3 4.3 0 0 0 3.128 4.135l12.137 3.593q-2.69 4.719-10.082 5.195-12.558.81-13.379-11.913z" />
		<path
			d="M119.796 79.796q.04-2.01.224-4.098 1.133-12.867 7.245-21.886 6.113-9.02 16.212-13.285 10.1-4.264 23.131-3.118 13.03 1.147 22.23 7.109 9.2 5.963 13.726 15.919 4.527 9.957 3.394 22.822-1.146 13.032-7.342 22.044t-16.302 13.36q-10.106 4.347-23.137 3.2-13.031-1.146-22.224-7.191t-13.636-15.994q-2.47-5.528-3.212-12.007c8.32-.027 16.549-.021 25.007.008q.675 5.905 3.347 9.64 4.44 6.209 12.358 6.905 7.917.697 13.456-4.634 5.54-5.33 6.613-17.537 1.06-12.04-3.471-18.174-4.53-6.134-12.447-6.83-7.918-.697-13.367 4.558-5.449 5.256-6.509 17.297a57 57 0 0 0-.136 1.9c-8.508-.03-16.786-.036-25.16-.008M229.481 123.103q-12.555-.876-11.667-13.595l4.09-58.64q.876-12.554 13.099-11.702t11.348 13.407l-.034.495q4.071-6.023 10.679-9.131 6.607-3.108 15.032-2.521 8.59.6 14.353 4.819 5.764 4.22 8.362 12.203 4.306-7.003 11.774-10.549t16.222-2.936q13.876.969 20.067 9.782 6.19 8.814 4.981 26.159l-2.616 37.497q-.426 6.112-3.877 9.191-3.452 3.08-9.399 2.664-12.554-.875-11.666-13.595l2.557-36.671q.565-8.094-1.736-11.989t-8.413-4.322q-7.104-.495-11.413 4.184-4.311 4.68-4.944 13.764l-2.316 33.202q-.887 12.72-13.276 11.856-5.946-.415-9.02-3.949-3.073-3.535-2.647-9.646l2.558-36.671q.564-8.094-1.819-11.995-2.384-3.902-8.331-4.316-7.102-.495-11.413 4.184-4.31 4.678-4.943 13.764l-2.316 33.202q-.888 12.719-13.276 11.855M377.869 126.901q-6.117.354-9.545-3.014t-3.802-9.815l-3.266-56.537q-.793-13.72 11.771-14.446 5.95-.343 9.38 3.024 3.429 3.368 3.811 9.98l3.266 56.536q.373 6.448-2.563 10.183-2.935 3.737-9.052 4.089M360.744 2.313a1.556 1.556 0 0 1 2.515-1.587l9.844 8.424 12.511-3.371a1.557 1.557 0 0 1 1.587 2.515l-8.424 9.844 3.371 12.511a1.556 1.556 0 0 1-2.515 1.588l-9.844-8.425-12.511 3.371a1.556 1.556 0 0 1-1.588-2.515l8.425-9.844zm75.86 71.307-3.384 40.717q-1.056 12.707-13.433 11.678-6.105-.507-9.049-4.075t-2.436-9.674l4.252-51.155-5.941-.494q-9.736-.808-8.967-10.05.782-9.406 10.517-8.597l5.941.494q1.729-16.805 11.264-24.569t26.503-8.016l5.322-.056q5.487-.042 7.832 2.728t2.291 6.421-2.192 6.381-5.796 2.759l-2.323-.027q-8.967-.08-13.057 3.152-4.09 3.231-4.693 10.493l-.233 2.805 11.716.974q9.735.809 8.954 10.215-.768 9.241-10.504 8.432l-11.716-.974-.259 3.117c-4.626-2.389-8.489-4.841-11.581-7.28-3.416-2.695-15.266-9.879-14.154-6.775 1.353 3.781 4.597 7.991 9.895 12.172 3.9 3.077 8.982 6.196 15.231 9.204" />
		<path
			d="m436.604 73.62-3.384 40.717q-1.056 12.707-13.433 11.678-6.105-.507-9.049-4.075t-2.436-9.674l4.252-51.155-5.941-.494q-9.736-.808-8.967-10.05.782-9.406 10.517-8.597l5.941.494q1.729-16.805 11.264-24.569t26.503-8.016l5.322-.056q5.487-.042 7.832 2.728t2.291 6.421-2.192 6.381-5.796 2.759l-2.323-.027q-8.967-.08-13.057 3.152-4.09 3.231-4.693 10.493l-.233 2.805 11.716.974q9.735.809 8.954 10.215-.768 9.241-10.504 8.432l-11.716-.974-.259 3.117c-4.626-2.389-8.489-4.841-11.581-7.28-3.416-2.695-15.266-9.879-14.154-6.775 1.353 3.781 4.597 7.991 9.895 12.172 3.9 3.077 8.982 6.196 15.231 9.204m33.273 4.599-1.087-20.842q-.656-12.567 11.746-13.215 12.567-.655 13.223 11.912l1.427 27.338c-9.231-1.456-17.671-3.216-25.309-5.193m54.166 8.482-1.676-32.12q-.656-12.567 11.746-13.215 12.567-.655 13.223 11.912l1.802 34.518a428 428 0 0 1-25.095-1.095m25.454 7.976.903 17.304q.664 12.733-11.407 13.363-5.953.31-9.268-2.833-3.314-3.142-3.625-9.096-7.43 13.321-23.304 14.15-15.544.81-23.351-7.404-7.808-8.215-8.705-25.412l-.492-9.419c7.692 1.924 16.128 3.635 25.302 5.052l.194 3.725q.751 14.387 13.153 13.739 7.11-.37 11.395-5.652 2.93-3.61 3.654-8.619c8.091.596 16.61.976 25.551 1.102M574.327 124.201q-12.891-.811-12.09-13.536l3.691-58.667q.79-12.56 13.02-11.79 12.228.77 11.439 13.329l-.188 2.974q6.875-14.333 25.622-14.315 4.152-.07 6.233 2.466t1.902 8q.008 5.145-2.575 7.968-2.583 2.825-8.244 3.132l-3.822.091q-18.623.653-19.694 17.675l-1.934 30.738q-.8 12.726-13.36 11.935M648.31 126.452q-6.124.206-9.471-3.244t-3.564-9.904l-1.904-56.598q-.462-13.736 12.115-14.159 5.957-.201 9.305 3.249 3.347 3.449 3.569 10.069l1.905 56.598q.217 6.454-2.808 10.119-3.024 3.663-9.147 3.87M652.088.415a1.557 1.557 0 0 1 2.576 1.487l-2.875 12.634 8.807 9.504a1.557 1.557 0 0 1-1.488 2.576l-12.633-2.875-9.504 8.806a1.557 1.557 0 0 1-2.576-1.487l2.874-12.634-8.806-9.504a1.555 1.555 0 0 1 1.487-2.575l12.634 2.874z" />
	</g>
	<path
		d="M72.96 83.392a3.44 3.44 0 0 1-3.497-3.377 3.44 3.44 0 0 1 3.377-3.497c34.051-.597 59.99-.578 92.159-.355a3.44 3.44 0 0 1 3.414 3.461 3.44 3.44 0 0 1-3.462 3.414c-32.11-.223-58.001-.242-91.991.354m334.779-43.539 6.365 2.611c-.61 1.478-.292 3.162.644 4.968 1.299 2.506 3.709 5.133 7.125 7.828 17.819 14.059 61.273 28.543 128.559 28.826l-.029 6.875c-69.559-.293-114.368-15.77-132.789-30.304-5.298-4.18-8.542-8.391-9.895-12.172-1.111-3.104-1.059-6.018.02-8.632m-3.469 151.744 6.869.285c-.205 4.957 3.845 8.891 8.804 9.069 5.665.202 9.998-4.502 9.399-9.544-.443-3.719-3.528-7.302-9.854-9.709l2.445-6.426c9.565 3.639 13.567 9.7 14.236 15.324 1.066 8.97-6.391 17.586-16.472 17.225-8.783-.314-15.791-7.442-15.427-16.224"
		style="fill:#f472b6" />
	<style>
		.contrastFill { fill: #000; }
		@media (prefers-color-scheme: dark) {
		.contrastFill { fill: #FFF; }
		}
	</style>
</svg>
