<svg xmlns="http://www.w3.org/2000/svg"
	viewBox="0 0 978 122" class="contrastFill">
	<path
		d="M931.078 445.052v94.946h58.907l9.885-25.238h-37.237v-10.756h32.579v-22.907h-32.607l.028-10.8h36.219v-25.232l-67.774-.013ZM887.766 445.061l-14.407 70.453-14.074-70.453h-33.698l26.288 94.933h42.141l26.763-94.933h-33.013ZM788.966 445.057h31.523v94.94h-31.523zM776.958 445.057h-82.134v25.231h25.306v69.71h31.53v-69.71h25.298v-25.231Z"
		transform="translate(-302.069 -569.526) scale(1.2797)" />
	<path d="M540.72.014h-43.136l47.858 121.494h43.135z" />
	<path d="M491.112.005h13.63L456.88 121.512h-13.63z" />
	<path
		d="M597.979 445.057h-76.721v9.522h33.236v85.419h10.253v-85.419h33.232v-9.522ZM504.464 445.057h-9.971v85.445l-54.914-85.445h-17.631v94.941h10v-87.845l56.257 87.845h16.259v-94.941ZM341.62 445.047v94.951h63.701v-9.527h-53.488v-33.087h48.181v-9.523h-48.173l-.008-33.274h52.179v-9.528l-62.392-.012ZM326.415 445.057h-76.721v9.522h33.236v85.419h10.254v-85.419h33.231v-9.522Z"
		transform="translate(-319.533 -569.526) scale(1.2797)" />
	<style>
		.contrastFill { fill: #000; }
		@media (prefers-color-scheme: dark) {
		.contrastFill { fill: #FFF; }
		}
	</style>
</svg>
