<?xml version="1.0" encoding="UTF-8" standalone="no"?>
<!DOCTYPE svg PUBLIC "-//W3C//DTD SVG 1.1//EN" "http://www.w3.org/Graphics/SVG/1.1/DTD/svg11.dtd">
<svg width="100%" height="100%" viewBox="0 0 978 122" version="1.1" xmlns="http://www.w3.org/2000/svg" xmlns:xlink="http://www.w3.org/1999/xlink" xml:space="preserve" xmlns:serif="http://www.serif.com/" style="fill-rule:evenodd;clip-rule:evenodd;stroke-linejoin:round;stroke-miterlimit:2;">
    <g transform="matrix(1.2797,0,0,1.2797,-302.069,-569.526)">
        <path d="M931.078,445.052L931.078,539.998L989.985,539.998L999.87,514.76L962.633,514.76L962.633,504.004L995.212,504.004L995.212,481.097L962.605,481.097L962.633,470.297L998.852,470.297L998.852,445.065L931.078,445.052Z" style="fill-rule:nonzero;"/>
    </g>
    <g transform="matrix(1.2797,0,0,1.2797,-302.069,-569.526)">
        <path d="M887.766,445.061L873.359,515.514L859.285,445.061L825.587,445.061L851.875,539.994L894.016,539.994L920.779,445.061L887.766,445.061Z" style="fill-rule:nonzero;"/>
    </g>
    <g transform="matrix(1.2797,0,0,1.2797,-302.069,-569.526)">
        <rect x="788.966" y="445.057" width="31.523" height="94.94" style="fill-rule:nonzero;"/>
    </g>
    <g transform="matrix(1.2797,0,0,1.2797,-302.069,-569.526)">
        <path d="M776.958,445.057L694.824,445.057L694.824,470.288L720.13,470.288L720.13,539.998L751.66,539.998L751.66,470.288L776.958,470.288L776.958,445.057Z" style="fill-rule:nonzero;"/>
    </g>
    <g transform="matrix(-3.02789,1.17471e-16,3.35936,8.52824,1318.04,-5123.36)">
        <rect x="923.24" y="600.754" width="14.246" height="14.246"/>
    </g>
    <g transform="matrix(1.00011,0,-3.51183,8.9153,454.056,-2228.82)">
        <rect x="914.913" y="250" width="13.629" height="13.629"/>
    </g>
    <g transform="matrix(1.2797,0,0,1.2797,-319.533,-569.526)">
        <path d="M597.979,445.057L521.258,445.057L521.258,454.579L554.494,454.579L554.494,539.998L564.747,539.998L564.747,454.579L597.979,454.579L597.979,445.057Z" style="fill-rule:nonzero;"/>
    </g>
    <g transform="matrix(1.2797,0,0,1.2797,-319.533,-569.526)">
        <path d="M504.464,445.057L494.493,445.057L494.493,530.502L439.579,445.057L421.948,445.057L421.948,539.998L431.948,539.998L431.948,452.153L488.205,539.998L504.464,539.998L504.464,445.057Z" style="fill-rule:nonzero;"/>
    </g>
    <g transform="matrix(1.2797,0,0,1.2797,-319.533,-569.526)">
        <path d="M341.62,445.047L341.62,539.998L405.321,539.998L405.321,530.471L351.833,530.471L351.833,497.384L400.014,497.384L400.014,487.861L351.841,487.861L351.833,454.587L404.012,454.587L404.012,445.059L341.62,445.047Z" style="fill-rule:nonzero;"/>
    </g>
    <g transform="matrix(1.2797,0,0,1.2797,-319.533,-569.526)">
        <path d="M326.415,445.057L249.694,445.057L249.694,454.579L282.93,454.579L282.93,539.998L293.184,539.998L293.184,454.579L326.415,454.579L326.415,445.057Z" style="fill-rule:nonzero;"/>
    </g>
</svg>
